<?xml version="1.0" encoding="UTF-8"?>
<svg version="1.1" xmlns="http://www.w3.org/2000/svg" width="512" height="512">
<path d="M0 0 C4.63296144 3.99086657 6.73729478 8.02821253 8 14 C8.18651424 16.79532188 8.28575222 19.49008111 8.2784729 22.28269958 C8.2842653 23.08905682 8.2900577 23.89541406 8.29602563 24.72620636 C8.31295552 27.41313384 8.31589607 30.09988883 8.31884766 32.78686523 C8.32815067 34.71891192 8.3383199 36.65095461 8.34928894 38.58299255 C8.37656083 43.81793978 8.39173006 49.05286014 8.40471697 54.28785968 C8.42035976 59.76249948 8.44714635 65.23708452 8.4727478 70.71168518 C8.5195152 81.07414347 8.55626922 91.43661209 8.58942068 101.79912192 C8.62765643 113.59836813 8.67706281 125.3975593 8.72740483 137.1967591 C8.83069438 161.46446527 8.9199645 185.73220679 9 210 C10.2136322 208.77304413 10.2136322 208.77304413 11.45178223 207.52130127 C19.09111665 199.80075603 26.74108543 192.09088891 34.40149689 184.39125443 C38.33912095 180.4327873 42.27295034 176.47069932 46.19824219 172.5 C49.98899847 168.66567031 53.78954275 164.84129547 57.5969696 161.02352142 C59.04528586 159.56783454 60.49008657 158.10864087 61.93122864 156.64585114 C63.95592348 154.59197102 65.99294758 152.55110294 68.03320312 150.51269531 C68.62158966 149.90992767 69.2099762 149.30716003 69.81619263 148.68612671 C75.46228601 143.09485269 81.35933193 139.42742492 89.5 139.4375 C97.07626973 139.68331176 101.25497528 142.1105003 106.375 147.5 C109.09784538 151.68899289 110.30262098 155.31110938 110.375 160.3125 C110.40335938 161.19550781 110.43171875 162.07851562 110.4609375 162.98828125 C109.0200236 172.40306611 102.30621693 178.27310041 95.85058594 184.68286133 C94.80798171 185.73253316 93.76622051 186.7830429 92.72523499 187.83432007 C89.91002554 190.67193546 87.08233837 193.49679198 84.25146389 196.31876969 C81.88431835 198.68078824 79.52342399 201.04900592 77.1624825 203.41722316 C71.59145276 209.00522307 66.01025184 214.58291494 60.42236328 220.15405273 C54.66697936 225.892506 48.92818236 231.64716665 43.19742942 237.41020948 C38.26623764 242.36812556 33.32536281 247.31624065 28.37655282 252.25657099 C25.42541578 255.20278867 22.47792904 258.15242821 19.53954315 261.11136818 C16.77638168 263.89293207 14.00126141 266.66199221 11.21664238 269.42206955 C10.19973512 270.43398404 9.18702059 271.45013312 8.17897987 272.47088051 C2.01016532 278.71123961 -2.66935619 282.8881306 -11.46875 284.43359375 C-25.28208356 284.46015785 -34.10340234 272.99502668 -43.22859192 263.91804504 C-44.07467514 263.07150864 -44.92075836 262.22497223 -45.79248047 261.3527832 C-47.17491692 259.97538467 -47.17491692 259.97538467 -48.58528137 258.57015991 C-51.08107503 256.08309171 -53.57372108 253.59289313 -56.06547689 251.10178018 C-57.62653026 249.54144278 -59.18829568 247.98182168 -60.75030899 246.4224453 C-66.21040257 240.97156032 -71.66795134 235.51814264 -77.12304688 230.06225586 C-82.19343965 224.99126037 -87.26940786 219.92589317 -92.34796798 214.86307842 C-96.72629647 210.49783759 -101.10074859 206.12873768 -105.47221863 201.75662869 C-108.07553841 199.15305471 -110.68036646 196.55103631 -113.28911972 193.95290565 C-116.19299833 191.06053424 -119.08877363 188.16017842 -121.98388672 185.2590332 C-122.84211533 184.4064241 -123.70034393 183.553815 -124.58457947 182.67536926 C-131.81497763 175.40660048 -136.50985553 169.61018622 -137 159 C-136.24533304 152.34345036 -133.72629631 147.94552344 -128.9140625 143.375 C-124.70420506 140.35077588 -120.81145087 139.66681996 -115.6875 139.5625 C-114.61886719 139.52253906 -113.55023438 139.48257813 -112.44921875 139.44140625 C-104.81906574 140.67709354 -99.27885553 146.28440923 -94.03320312 151.6262207 C-93.38829926 152.27068649 -92.74339539 152.91515228 -92.07894897 153.57914734 C-89.97251592 155.68765195 -87.87687905 157.80654307 -85.78125 159.92578125 C-84.31360571 161.39902729 -82.84529282 162.87160754 -81.37634277 164.34355164 C-77.52940173 168.20189579 -73.69155931 172.0691664 -69.85559082 175.93841553 C-65.93265774 179.8921474 -62.00111899 183.83730168 -58.0703125 187.78320312 C-50.3717987 195.51380103 -42.68287713 203.25386393 -35 211 C-34.99853344 209.98178162 -34.99706688 208.96356323 -34.99555588 207.91448975 C-34.9589548 183.13469848 -34.89949713 158.35504231 -34.81609726 133.57536316 C-34.77629432 121.59206926 -34.74390816 109.60884115 -34.72900391 97.62548828 C-34.71599395 87.18033881 -34.6890459 76.73533403 -34.64538693 66.29026604 C-34.62275755 60.76007768 -34.60709022 55.23006787 -34.60811615 49.6998291 C-34.60886187 44.4926366 -34.59094586 39.28583903 -34.55883217 34.0787487 C-34.5503264 32.16963439 -34.54858783 30.26047581 -34.55419731 28.35135078 C-34.56084854 25.7393896 -34.54289033 23.12868085 -34.51898193 20.5168457 C-34.52674235 19.76584972 -34.53450277 19.01485374 -34.54249835 18.24110031 C-34.440467 11.92074012 -32.38046945 6.81525839 -28.2890625 1.9765625 C-19.36521451 -5.27144549 -9.81701465 -6.16965801 0 0 Z " fill="#8750f7" transform="translate(272,75)"/>
<path d="M0 0 C4.39334642 5.12159134 6.11424517 9.13293295 6.1418457 15.91699219 C6.14888016 16.89190613 6.15591461 17.86682007 6.16316223 18.87127686 C6.16732651 19.91922424 6.17149078 20.96717163 6.17578125 22.046875 C6.19898244 24.27605108 6.2230999 26.50521777 6.24804688 28.734375 C6.28312243 32.24094909 6.31248919 35.74717826 6.32592773 39.25390625 C6.34145292 42.64365197 6.38169426 46.03239581 6.42578125 49.421875 C6.42387283 50.46172546 6.42196442 51.50157593 6.41999817 52.57293701 C6.54733193 60.19803261 7.86261133 65.94305719 13.4375 71.375 C19.41871438 75.16796522 24.35623359 75.28746655 31.27964783 75.26069641 C32.84779003 75.26643473 32.84779003 75.26643473 34.44761187 75.27228898 C37.95592954 75.28262016 41.46408359 75.27862656 44.97241211 75.2746582 C47.48555147 75.27900459 49.9986895 75.28418749 52.51182556 75.29014587 C58.63264422 75.30216144 64.7534024 75.30468637 70.87423056 75.30234561 C75.84927495 75.30056255 80.82430603 75.30231184 85.79934883 75.30657005 C86.50743152 75.30716524 87.21551421 75.30776043 87.94505395 75.30837366 C89.3835239 75.30958541 90.82199384 75.31079954 92.26046378 75.31201603 C105.75007105 75.32289216 119.23965332 75.32072869 132.729262 75.31463119 C145.06952125 75.30946151 157.40970158 75.32071866 169.74994522 75.33972941 C182.42209902 75.35910177 195.09421547 75.36736489 207.76638418 75.36360615 C214.88037912 75.36169325 221.99430686 75.36419036 229.10828972 75.37832069 C235.7969354 75.39147179 242.48539733 75.38898268 249.17405128 75.37590981 C251.63068571 75.37353813 254.08733117 75.37629975 256.54395294 75.38453293 C259.89394332 75.39495174 263.24339771 75.38693842 266.59336853 75.3742218 C268.0561612 75.38528323 268.0561612 75.38528323 269.54850525 75.39656812 C274.8495675 75.35414993 278.35331805 74.81888799 283 72 C284.485 71.505 284.485 71.505 286 71 C287.15553533 69.17598507 287.15553533 69.17598507 288 67 C288.27711823 66.35269424 288.55423645 65.70538849 288.8397522 65.03846741 C291.11438049 58.84425391 291.39685578 53.23897477 291.3359375 46.68359375 C291.34844356 44.51627301 291.36148038 42.34895528 291.375 40.18164062 C291.37893309 36.80238196 291.37493922 33.42342013 291.36035156 30.04418945 C291.35175916 26.75688129 291.37348989 23.47079433 291.3984375 20.18359375 C291.38509369 19.18130234 291.37174988 18.17901093 291.35800171 17.14634705 C291.44531342 8.80648936 294.0888257 4.188429 299.625 -1.875 C305.24140077 -5.41125234 311.67303026 -6.76824874 318.25 -5.4375 C323.86764872 -3.61867111 328.29731599 -0.58149985 331.375 4.5 C333.43366733 8.93405272 334.11837045 12.77082937 334.16113281 17.62817383 C334.17074036 18.51712845 334.1803479 19.40608307 334.19024658 20.32197571 C334.1966214 21.7500782 334.1966214 21.7500782 334.203125 23.20703125 C334.20882507 24.20522385 334.21452515 25.20341644 334.22039795 26.2318573 C334.22983525 28.34751329 334.23637688 30.4631839 334.24023438 32.57885742 C334.24985091 35.76313295 334.28084918 38.94673764 334.3125 42.13085938 C334.38914258 56.49466381 334.44476184 71.41170329 327.375 84.375 C327.03090088 85.03290527 326.68680176 85.69081055 326.33227539 86.36865234 C323.05692309 92.37162439 318.94515397 97.28127249 314 102 C313.19175781 102.83724609 313.19175781 102.83724609 312.3671875 103.69140625 C301.08752903 114.54595196 284.74141585 118.48364311 269.57054138 118.38095093 C267.94359151 118.38797089 267.94359151 118.38797089 266.28377396 118.39513266 C262.68441597 118.40700625 259.08544414 118.39765528 255.48608398 118.38818359 C252.89135518 118.39225265 250.29662811 118.39759641 247.7019043 118.40411377 C241.40722642 118.41739832 235.11265634 118.41459719 228.81797438 118.40587585 C223.69916232 118.3990794 218.5803803 118.39819102 213.46156502 118.4014473 C212.73089612 118.401907 212.00022722 118.40236669 211.24741684 118.40284032 C209.76273329 118.40379957 208.27804974 118.40477221 206.7933662 118.4057581 C192.89772531 118.41429637 179.00214397 118.40450215 165.10651285 118.388357 C153.2012685 118.37495241 141.29611191 118.37728609 129.39086914 118.39111328 C115.5407856 118.40719192 101.69075411 118.4134755 87.84066254 118.40427649 C86.36198144 118.40332091 84.88330033 118.4023778 83.40461922 118.4014473 C82.67721768 118.40098447 81.94981615 118.40052164 81.20037214 118.40004479 C76.09129099 118.39746196 70.98224305 118.40181055 65.87316704 118.40888596 C58.98906545 118.4182107 52.10513183 118.41150895 45.22104645 118.39420319 C42.69878221 118.3902457 40.176504 118.3913597 37.65424538 118.39799118 C34.20346911 118.4062256 30.75321806 118.39586163 27.30247498 118.38095093 C26.31160037 118.38764309 25.32072576 118.39433526 24.29982466 118.40123022 C14.50558908 118.31950817 5.63943491 115.80866858 -3.0625 111.375 C-3.74368896 111.02872559 -4.42487793 110.68245117 -5.12670898 110.32568359 C-18.79966824 103.08505714 -27.63042901 91.33989625 -33 77 C-35.52007004 68.36544635 -36.45776566 60.16591919 -36.43359375 51.19921875 C-36.4388356 50.03800003 -36.44407745 48.87678131 -36.44947815 47.68037415 C-36.45584849 45.2494079 -36.45462687 42.81841062 -36.44604492 40.38745117 C-36.4374803 36.67896982 -36.46645638 32.97200388 -36.49804688 29.26367188 C-36.49965792 26.88802129 -36.49908321 24.512368 -36.49609375 22.13671875 C-36.50732773 21.03760666 -36.51856171 19.93849457 -36.53013611 18.80607605 C-36.46595415 11.7005507 -35.61234817 5.79013014 -30.55271912 0.48149109 C-21.46193155 -7.46042976 -9.378672 -8.07002009 0 0 Z " fill="#8750f7" transform="translate(110,343)"/>
</svg>
