<?xml version="1.0" encoding="UTF-8"?>
<svg version="1.1" xmlns="http://www.w3.org/2000/svg" width="512" height="512">
<path d="M0 0 C1.01790619 0.00215515 2.03581238 0.0043103 3.08456421 0.00653076 C17.69363523 0.05620146 32.02575853 0.30709809 46.375 3.3125 C47.34985352 3.51117676 48.32470703 3.70985352 49.32910156 3.91455078 C97.7109774 14.03517194 141.69928269 35.9516877 177.375 70.3125 C178.3640332 71.26068604 178.3640332 71.26068604 179.37304688 72.22802734 C188.86130305 81.37247479 197.6012044 90.66984009 205.375 101.3125 C206.23306152 102.46355017 207.09113451 103.61459177 207.94921875 104.765625 C213.98677396 112.95525981 219.36957302 121.45788276 224.375 130.3125 C224.7771875 131.01971191 225.179375 131.72692383 225.59375 132.45556641 C238.6191741 155.59095836 247.36801461 180.76212409 252.6875 206.75 C252.83485596 207.46889404 252.98221191 208.18778809 253.1340332 208.9284668 C256.10789088 224.57475609 256.74800362 240.04818046 256.6875 255.9375 C256.68534485 256.95540619 256.6831897 257.97331238 256.68096924 259.02206421 C256.63129854 273.63113523 256.38040191 287.96325853 253.375 302.3125 C253.07698486 303.77478027 253.07698486 303.77478027 252.77294922 305.26660156 C242.65232806 353.6484774 220.7358123 397.63678269 186.375 433.3125 C185.74287598 433.97185547 185.11075195 434.63121094 184.45947266 435.31054688 C175.31502521 444.79880305 166.01765991 453.5387044 155.375 461.3125 C154.22394983 462.17056152 153.07290823 463.02863451 151.921875 463.88671875 C143.73224019 469.92427396 135.22961724 475.30707302 126.375 480.3125 C125.66778809 480.7146875 124.96057617 481.116875 124.23193359 481.53125 C98.0270882 496.28480272 69.08960882 505.81380207 39.375 510.3125 C38.25689941 510.48982666 37.13879883 510.66715332 35.98681641 510.84985352 C25.22545702 512.39416151 14.5855899 512.65229671 3.72314453 512.62817383 C0.77468385 512.62502635 -2.17275697 512.64852578 -5.12109375 512.67382812 C-18.51105903 512.71844438 -31.42266733 511.51675057 -44.625 509.3125 C-45.76195312 509.12437744 -46.89890625 508.93625488 -48.0703125 508.74243164 C-91.33774735 500.97113308 -132.38813234 480.98328041 -165.625 452.3125 C-166.37007813 451.67828125 -167.11515625 451.0440625 -167.8828125 450.390625 C-181.38779833 438.57948485 -194.05918743 425.82889772 -204.625 411.3125 C-205.48149066 410.16255169 -206.33826433 409.01281411 -207.1953125 407.86328125 C-213.23534209 399.67315742 -218.61867614 391.16870382 -223.625 382.3125 C-224.0271875 381.60528809 -224.429375 380.89807617 -224.84375 380.16943359 C-237.8691741 357.03404164 -246.61801461 331.86287591 -251.9375 305.875 C-252.08485596 305.15610596 -252.23221191 304.43721191 -252.3840332 303.6965332 C-255.35789088 288.05024391 -255.99800362 272.57681954 -255.9375 256.6875 C-255.93534485 255.66959381 -255.9331897 254.65168762 -255.93096924 253.60293579 C-255.88129854 238.99386477 -255.63040191 224.66174147 -252.625 210.3125 C-252.42632324 209.33764648 -252.22764648 208.36279297 -252.02294922 207.35839844 C-241.90232806 158.9765226 -219.9858123 114.98821731 -185.625 79.3125 C-184.99287598 78.65314453 -184.36075195 77.99378906 -183.70947266 77.31445312 C-174.56502521 67.82619695 -165.26765991 59.0862956 -154.625 51.3125 C-153.47394983 50.45443848 -152.32290823 49.59636549 -151.171875 48.73828125 C-142.98224019 42.70072604 -134.47961724 37.31792698 -125.625 32.3125 C-124.91778809 31.9103125 -124.21057617 31.508125 -123.48193359 31.09375 C-100.34654164 18.0683259 -75.17537591 9.31948539 -49.1875 4 C-48.46860596 3.85264404 -47.74971191 3.70528809 -47.0090332 3.5534668 C-31.36274391 0.57960912 -15.88931954 -0.06050362 0 0 Z M-50.625 51.3125 C-47.30850279 56.82442495 -43.84836036 62.09780117 -39.9074707 67.18237305 C-16.11617611 97.90677691 3.65327658 132.34163089 22.375 166.3125 C60.73063616 160.04735722 106.19402738 119.86211796 128.375 89.3125 C101.47636169 59.8942424 49.43495977 47.16199329 11.18164062 45.14404297 C-9.57484109 44.39377087 -30.45772577 46.22558468 -50.625 51.3125 Z M-95.625 68.3125 C-147.07371587 95.73334991 -183.31564935 139.88041194 -201.71484375 195.015625 C-202.66077403 198.4420849 -203.15159551 201.79339621 -203.625 205.3125 C-143.54671689 206.44277161 -77.71016704 202.37437979 -20.625 182.3125 C-37.50071292 145.8964879 -62.65918438 111.99274958 -86.3125 79.75 C-86.90095703 78.9461084 -87.48941406 78.1422168 -88.09570312 77.31396484 C-88.64548828 76.56969238 -89.19527344 75.82541992 -89.76171875 75.05859375 C-90.48427856 74.07910767 -90.48427856 74.07910767 -91.22143555 73.07983398 C-92.58881939 71.35805774 -94.0387768 69.83247177 -95.625 68.3125 Z M159.99560547 122.65429688 C159.41697754 123.27369141 158.83834961 123.89308594 158.2421875 124.53125 C157.27925781 125.55992188 157.27925781 125.55992188 156.296875 126.609375 C155.62140625 127.33640625 154.9459375 128.0634375 154.25 128.8125 C153.59773438 129.50859375 152.94546875 130.2046875 152.2734375 130.921875 C148.41851767 135.05214624 144.65565482 139.24416906 140.98339844 143.5378418 C138.05114796 146.77319831 134.71324719 149.50926405 131.375 152.3125 C130.42753906 153.13621094 129.48007812 153.95992187 128.50390625 154.80859375 C105.20199507 175.00115616 78.55303351 191.39263692 50.38818359 203.90332031 C46.71851498 205.34712378 46.71851498 205.34712378 44.375 208.3125 C45.32204873 210.83663207 46.3341613 213.24388628 47.453125 215.69140625 C47.7803656 216.41867416 48.1076062 217.14594208 48.44476318 217.89524841 C49.14032996 219.43450122 49.84001585 220.9718982 50.54345703 222.50756836 C51.61953238 224.86303171 52.6756667 227.22674444 53.73046875 229.59179688 C54.40766046 231.08387568 55.0860078 232.57543065 55.765625 234.06640625 C56.08138489 234.77680557 56.39714478 235.4872049 56.72247314 236.21913147 C57.52769684 237.95575767 58.44330986 239.64031304 59.375 241.3125 C62.41467886 242.32572629 63.39816269 242.3233755 66.43359375 241.82421875 C67.69550537 241.63134277 67.69550537 241.63134277 68.98291016 241.43457031 C69.9166748 241.29116211 70.85043945 241.14775391 71.8125 241 C114.52608015 235.04444366 158.67978623 236.28373816 201.23852539 242.92993164 C204.31921233 243.30569535 207.27506069 243.37984562 210.375 243.3125 C210.56952398 236.32404577 209.87487946 229.81951125 208.6875 222.9375 C208.41631348 221.35811646 208.41631348 221.35811646 208.13964844 219.74682617 C201.7756974 183.91843232 186.91809895 148.61177584 162.375 121.3125 C161.17374194 121.19628827 161.17374194 121.19628827 159.99560547 122.65429688 Z M-5.0234375 224.5625 C-72.10876635 244.27409163 -141.05130258 249.44932456 -210.625 251.3125 C-210.70104125 259.7425172 -210.71879272 268.10358465 -209.875 276.5 C-209.78702148 277.38163818 -209.69904297 278.26327637 -209.60839844 279.17163086 C-205.13686231 320.61450651 -188.24659036 357.76047946 -162.625 390.3125 C-159.39964323 387.29639456 -157.00994457 384.10637952 -154.5625 380.4375 C-113.08348787 319.39504503 -54.46850322 278.19039687 14.375 253.3125 C13.74796891 249.26766216 12.44157059 246.02809226 10.65234375 242.35546875 C10.11416016 241.24365234 9.57597656 240.13183594 9.02148438 238.98632812 C8.45751953 237.83583984 7.89355469 236.68535156 7.3125 235.5 C6.74466797 234.33017578 6.17683594 233.16035156 5.59179688 231.95507812 C4.19129404 229.07168993 2.78553866 226.19098849 1.375 223.3125 C-0.9848377 223.3125 -2.75857768 223.88299687 -5.0234375 224.5625 Z M77.375 285.3125 C77.62556152 286.02341797 77.87612305 286.73433594 78.13427734 287.46679688 C92.81822002 329.26109359 105.20727975 371.33218546 114.15234375 414.74853516 C114.35371948 415.71197845 114.55509521 416.67542175 114.76257324 417.6680603 C115.1422126 419.487335 115.51468547 421.30812396 115.87902832 423.13052368 C116.31370981 425.20562021 116.83557123 427.26213657 117.375 429.3125 C118.035 429.6425 118.695 429.9725 119.375 430.3125 C129.15388073 423.68573225 137.90514395 416.53692708 146.375 408.3125 C146.92043457 407.79284668 147.46586914 407.27319336 148.02783203 406.73779297 C170.6613424 385.16720061 187.21400329 358.42983832 198.375 329.3125 C198.62088867 328.67280273 198.86677734 328.03310547 199.12011719 327.37402344 C203.44918449 315.86895583 208.375 301.68298698 208.375 289.3125 C181.12745026 284.4399532 154.33450414 282.03959317 126.6875 282 C125.68355194 281.99641479 124.67960388 281.99282959 123.64523315 281.98913574 C100.35994853 281.93225033 100.35994853 281.93225033 77.375 285.3125 Z M22.4375 297.6875 C21.64190674 297.95860596 20.84631348 298.22971191 20.02661133 298.5090332 C-2.39388319 306.37031066 -24.32873727 317.44599598 -43.625 331.3125 C-44.65753906 332.05113281 -45.69007813 332.78976562 -46.75390625 333.55078125 C-65.43477141 347.26307211 -83.98541311 363.31790478 -98.359375 381.51171875 C-100.17499706 383.75620326 -102.03364211 385.90896645 -103.953125 388.0625 C-107.76940659 392.40099348 -111.2179945 396.96151356 -114.625 401.625 C-115.2329541 402.45298096 -115.8409082 403.28096191 -116.46728516 404.1340332 C-120.77673294 410.04494155 -124.8699815 416.03060815 -128.625 422.3125 C-124.5640932 426.75361122 -120.09775558 429.83317312 -115 433 C-114.16170654 433.52182861 -113.32341309 434.04365723 -112.4597168 434.58129883 C-85.2749042 451.2977099 -55.5259565 462.78322751 -23.625 466.3125 C-22.7690625 466.42207031 -21.913125 466.53164063 -21.03125 466.64453125 C9.653078 469.95103211 47.35415218 467.32292391 75.375 453.3125 C74.82866186 446.86713034 73.97804599 440.59699022 72.66015625 434.265625 C72.48933029 433.42915436 72.31850433 432.59268372 72.14250183 431.73086548 C71.58201972 429.00637495 71.01140782 426.28419274 70.4375 423.5625 C70.23870239 422.6169928 70.03990479 421.6714856 69.83508301 420.69732666 C62.70166194 386.94411775 53.28166689 354.03250066 42.375 321.3125 C42.13851746 320.60305237 41.90203491 319.89360474 41.65838623 319.16265869 C40.22130857 314.86769404 38.74923806 310.586259 37.25 306.3125 C36.89607178 305.28600342 36.54214355 304.25950684 36.17749023 303.2019043 C35.84821533 302.28965088 35.51894043 301.37739746 35.1796875 300.4375 C34.90108887 299.65632813 34.62249023 298.87515625 34.33544922 298.0703125 C31.71645177 293.2770279 26.44959251 296.30739488 22.4375 297.6875 Z " fill="#8750f7" transform="translate(255.625,-0.3125)"/>
</svg>
