<?xml version="1.0" encoding="UTF-8"?>
<svg version="1.1" xmlns="http://www.w3.org/2000/svg" width="981" height="688">
<path d="M0 0 C1.97302811 0.6932805 3.94675716 1.38456906 5.92114258 2.07397461 C9.96079929 3.48656337 13.9972269 4.9078305 18.03125 6.33642578 C25.53658839 8.98978912 33.06929935 11.56087033 40.60614014 14.12307739 C43.04752158 14.95366747 45.48798485 15.78690595 47.92822266 16.62084961 C66.88035874 23.09560835 85.85500465 29.50411523 104.82666016 35.92138672 C107.64486043 36.87466366 110.46305702 37.8279515 113.28125 38.78125 C113.97902935 39.01728062 114.6768087 39.25331123 115.39573288 39.49649429 C129.72492884 44.34365889 144.05065036 49.20103107 158.375 54.0625 C160.08452347 54.64265366 160.08452347 54.64265366 161.82858276 55.23452759 C168.68453108 57.56123871 175.54037183 59.88826665 182.3961792 62.21539307 C192.74310401 65.72746539 203.09024991 69.23888614 213.4375 72.75 C214.58165375 73.13825958 215.7258075 73.52651917 216.90463257 73.92654419 C230.38819408 78.50190125 243.87286685 83.07396172 257.359375 87.640625 C258.01067635 87.86116295 258.66197769 88.0817009 259.33301544 88.30892181 C262.63081434 89.42558024 265.92862545 90.54220255 269.22644043 91.65881348 C291.22591068 99.10766385 313.22227723 106.56549714 335.2097168 114.04980469 C346.22605928 117.79909662 357.24567442 121.53847947 368.26953125 125.265625 C381.13064965 129.61445507 393.98695665 133.97721058 406.83648682 138.36016846 C408.74215601 139.01000872 410.64802163 139.65927341 412.55413818 140.30780029 C417.1284008 141.86431946 421.69907765 143.43019898 426.26211548 145.01934814 C428.09306825 145.65473005 429.92767261 146.27956037 431.76245117 146.90380859 C450.4596784 153.48010368 450.4596784 153.48010368 454.8125 162.375 C456.13455249 165.81233647 455.85559972 167.2268447 454.8125 170.8125 C449.23240143 182.1693526 434.31349652 185.62235912 423.1809082 189.42358398 C419.99504145 190.49956339 416.80439021 191.56078353 413.61328125 192.62109375 C411.88498988 193.2005056 410.15690055 193.78052039 408.42900085 194.36109924 C403.91221692 195.87739137 399.3933089 197.3872388 394.87371826 198.8951416 C387.66180606 201.30204824 380.45265529 203.71718039 373.24458885 206.13557625 C370.76505771 206.96618728 368.28427521 207.79296475 365.80329895 208.61924744 C354.72378661 212.32217934 343.75341987 216.28128949 332.8125 220.375 C333.31354248 220.84494385 333.81458496 221.3148877 334.33081055 221.79907227 C368.72793135 254.40823551 379.1794625 299.7173992 380.6953125 345.42578125 C380.86357319 351.74287275 380.90954963 358.05599049 380.8125 364.375 C381.68261719 364.55289063 381.68261719 364.55289063 382.5703125 364.734375 C392.88970213 367.68277204 400.52558939 376.52070796 405.8125 385.375 C411.532519 397.2629913 412.82606519 410.42675456 409.25 423.1875 C404.84083194 435.6441706 397.2473694 444.7949348 385.8125 451.375 C393.86382664 505.32033395 413.59026249 555.55099565 444.8125 600.375 C445.92818359 601.97794922 445.92818359 601.97794922 447.06640625 603.61328125 C455.89492123 616.17590047 465.34478245 628.29074959 474.8125 640.375 C468.94897144 655.64099151 438.99324561 668.01664006 424.8125 674.375 C406.29775597 682.55882804 406.29775597 682.55882804 399.5234375 680.2578125 C370.51706683 664.97342515 350.1421785 642.68037429 339.8125 611.375 C338.62130181 607.42055559 337.56491816 603.44370296 336.5625 599.4375 C336.21131104 598.07564575 336.21131104 598.07564575 335.85302734 596.6862793 C330.88803324 575.53967539 330.30447091 553.80329622 330.4375 532.1875 C330.44015869 530.92893188 330.44281738 529.67036377 330.44555664 528.37365723 C330.50101554 505.79406549 331.51902255 483.33038865 333.35519409 460.82749939 C334.56354812 452.49734596 334.56354812 452.49734596 332.0546875 445.07421875 C331.27351562 444.41035156 330.49234375 443.74648438 329.6875 443.0625 C319.58974684 433.71096445 315.45199843 422.623751 314.75 409.06640625 C315.01090177 393.65689573 320.94966279 381.96578046 331.8125 371.375 C335.42956783 368.375 335.42956783 368.375 337.8125 368.375 C337.65563721 367.82368408 337.49877441 367.27236816 337.3371582 366.7043457 C336.76068852 364.14497055 336.56881073 361.72471731 336.41796875 359.10546875 C333.71175573 316.41990878 323.91584524 276.49288805 293.02734375 245.32421875 C292.29644531 244.68097656 291.56554687 244.03773438 290.8125 243.375 C290.33651367 242.94155273 289.86052734 242.50810547 289.37011719 242.06152344 C282.57519289 236.39469946 274.29830808 233.51947954 266.1875 230.25 C264.55928885 229.58389405 262.93144571 228.91688789 261.30395508 228.24902344 C256.48016751 226.27430355 251.6476172 224.32178507 246.8125 222.375 C246.15364807 222.10925171 245.49479614 221.84350342 244.815979 221.56970215 C238.90038526 219.18374665 232.97842718 216.8140711 227.05111694 214.4573822 C216.24578998 210.16058924 205.46670162 205.7993416 194.6875 201.4375 C192.67668365 200.6240056 190.66586001 199.81052921 188.6550293 198.99707031 C185.55638101 197.74353023 182.4577411 196.48996946 179.35914612 195.23629761 C168.60433466 190.88532162 157.84671115 186.54131693 147.08886719 182.19784546 C117.24861063 170.14973069 87.40885558 158.10027646 57.58177185 146.01957703 C53.29788394 144.28463746 49.01303336 142.55217175 44.72583008 140.82543945 C36.25609437 137.41080592 27.80205904 133.96388552 19.37539673 130.44406128 C15.08984549 128.65641747 10.79828751 126.88346563 6.50610352 125.11181641 C4.44230131 124.25539884 2.38133641 123.39210692 0.32348633 122.52148438 C-2.54684498 121.30775776 -5.42625919 120.11847702 -8.30859375 118.93359375 C-9.14643906 118.57200668 -9.98428436 118.21041962 -10.84751892 117.83787537 C-17.51085323 115.14197173 -24.57390473 113.90170383 -31.57810974 116.13841248 C-37.34201053 118.64099733 -40.79402089 122.45532947 -43.5 128.125 C-44.92770035 134.87412893 -45.26917267 141.38230385 -41.57568359 147.45214844 C-35.49677804 155.87238413 -24.48351126 158.73175806 -15.1875 162.25 C-12.16494783 163.40961247 -9.14507327 164.57613671 -6.125 165.7421875 C-4.84341255 166.23526146 -4.84341255 166.23526146 -3.53593445 166.73829651 C5.62558199 170.27534112 14.73995028 173.92855947 23.85546875 177.58203125 C39.55766619 183.87496559 55.26901239 190.14435585 70.98828125 196.39453125 C73.19590206 197.27249242 75.40351307 198.15047825 77.6111145 199.02848816 C78.71752604 199.46853086 79.82393757 199.90857355 80.96387672 200.36195087 C82.6364306 201.02716141 82.6364306 201.02716141 84.34277344 201.70581055 C86.02690621 202.37560204 86.02690621 202.37560204 87.74506187 203.05892467 C132.14665321 220.71819195 176.52126381 238.44059806 220.8125 256.375 C219.46738299 259.06523401 217.8028402 259.24918436 215.0669241 260.181674 C214.04669706 260.5166526 214.04669706 260.5166526 213.00585938 260.85839844 C212.29038217 261.09985753 211.57490496 261.34131662 210.83774662 261.59009266 C208.44621979 262.39524196 206.05128921 263.18974073 203.65625 263.984375 C201.97665635 264.54765959 200.29729308 265.11163153 198.6181488 265.67625427 C195.04590438 266.87594333 191.47217591 268.07105932 187.89718628 269.26254272 C182.29692153 271.12907255 176.70001136 273.00551042 171.10375977 274.8840332 C165.69563975 276.69924424 160.28739035 278.51403194 154.87695312 280.32232666 C140.43844061 285.14964008 126.03141258 290.06713074 111.62944508 295.00222397 C102.64427658 298.0805428 93.64720277 301.12335523 84.64764786 304.15929604 C82.40548969 304.9156838 80.16341527 305.6723194 77.9213562 306.42900085 C65.49336344 310.62291698 65.49336344 310.62291698 59.36553955 312.68466187 C43.57487174 317.99766061 27.80016713 323.34190177 12.1015625 328.921875 C9.70028681 329.77118746 7.2990013 330.62047217 4.89770508 331.46972656 C0.50692183 333.02385781 -3.87423119 334.60183509 -8.2512207 336.19433594 C-26.79770154 342.85088972 -37.46574277 341.54203389 -55.6875 334.8125 C-57.58904283 334.12668149 -59.49140553 333.44313248 -61.39453125 332.76171875 C-64.35456675 331.70171855 -67.31408282 330.64048585 -70.27124023 329.57247925 C-79.6268332 326.19571279 -89.03451814 322.98262143 -98.45700073 319.79821777 C-113.71071601 314.64073569 -128.92933128 309.38832223 -144.125 304.0625 C-161.41384524 298.00354997 -178.75020328 292.09182891 -196.10308838 286.21905518 C-210.92889517 281.19996681 -225.73049887 276.1198796 -240.5 270.9375 C-257.02546274 265.1391471 -273.5971125 259.48475357 -290.1875 253.875 C-307.705021 247.95170127 -325.19658208 241.96473137 -342.64599609 235.84375 C-357.12997638 230.76491618 -371.65047629 225.79982159 -386.1875 220.875 C-403.79251297 214.91034849 -421.36668573 208.8653724 -438.90576172 202.70947266 C-447.3634372 199.74292567 -455.82895284 196.80656215 -464.32421875 193.94921875 C-465.94280288 193.40278965 -467.56137411 192.85632235 -469.17993164 192.30981445 C-472.16429349 191.30262092 -475.15204659 190.30657799 -478.14233398 189.31713867 C-499.7951708 182.06535866 -499.7951708 182.06535866 -505.125 173.125 C-506.43959214 168.48526305 -506.43454654 165.65790449 -504.1875 161.375 C-496.97925443 152.53849591 -485.13795801 149.15896435 -474.6875 145.6953125 C-473.71083374 145.36606781 -472.73416748 145.03682312 -471.72790527 144.69760132 C-469.63672573 143.99314392 -467.54470213 143.29118786 -465.4519043 142.59155273 C-459.82843529 140.71117506 -454.21146059 138.81155992 -448.59375 136.9140625 C-446.88656799 136.3381839 -446.88656799 136.3381839 -445.14489746 135.75067139 C-434.63277536 132.19978724 -424.15668974 128.55014861 -413.6875 124.875 C-397.15635713 119.07756628 -380.58260991 113.41301035 -363.99072266 107.79199219 C-349.53060591 102.89153321 -335.09568043 97.92606643 -320.6875 92.875 C-304.15568367 87.07945192 -287.58263379 81.41301844 -270.99072266 75.79199219 C-256.53060591 70.89153321 -242.09568043 65.92606643 -227.6875 60.875 C-211.15468239 55.0791009 -194.58064372 49.41227535 -177.98770142 43.79098511 C-162.72563152 38.61884325 -147.49527522 33.36428453 -132.28903198 28.03042603 C-114.53812095 21.8073923 -96.72819086 15.76222217 -78.90332031 9.75463867 C-69.57290666 6.60453287 -60.2501421 3.45585674 -51.0234375 0.01171875 C-50.36425827 -0.2326442 -49.70507904 -0.47700714 -49.02592468 -0.72877502 C-46.1730686 -1.78859982 -43.33044032 -2.86647524 -40.50024414 -3.9855957 C-25.69578207 -9.56316078 -14.18746046 -5.10103893 0 0 Z " fill="#8750f7" transform="translate(506.1875,6.625)"/>
<path d="M0 0 C7.68276927 1.05879013 7.68276927 1.05879013 11.15136719 2.25244141 C11.8947081 2.50487106 12.63804901 2.75730072 13.40391541 3.01737976 C14.19359207 3.29266006 14.98326874 3.56794037 15.796875 3.8515625 C16.64588882 4.14202957 17.49490265 4.43249664 18.36964417 4.73176575 C21.16523354 5.69007896 23.95760014 6.65743627 26.75 7.625 C28.72795252 8.30522325 30.70606403 8.98498437 32.68432617 9.66430664 C46.79460059 14.51691797 60.88209869 19.43546565 74.96520996 24.36627197 C89.11766764 29.32128178 103.29985048 34.1834813 117.5 39 C133.47771807 44.41944842 149.42542841 49.91712483 165.34863281 55.49462891 C178.87620857 60.23151597 192.42851 64.89050884 206 69.5 C219.9162903 74.22702263 233.81400577 79.00298783 247.6882019 83.8522644 C250.40547717 84.80131552 253.12364034 85.74778137 255.84204102 86.69360352 C263.12096898 89.22866526 270.39700199 91.76732797 277.63877869 94.40699768 C279.6615349 95.14323743 281.68680357 95.87205351 283.71313477 96.59838867 C286.08910527 97.45267895 288.46003962 98.32120116 290.82397461 99.20825195 C292.39417358 99.76838989 292.39417358 99.76838989 293.99609375 100.33984375 C295.31371704 100.82505493 295.31371704 100.82505493 296.65795898 101.32006836 C307.32602709 103.49046574 316.0210351 101.12264635 325.94630051 97.37872887 C329.14766659 96.17246129 332.36494557 95.0114638 335.58185005 93.8473978 C337.32247016 93.21750509 339.06237007 92.58561908 340.80158806 91.9518652 C351.27285508 88.14605969 361.83504348 84.61423303 372.3984375 81.07421875 C374.45134295 80.38433109 376.50417852 79.69423545 378.5569458 79.00393677 C383.78062084 77.2479803 389.00521917 75.49478897 394.23010254 73.74243164 C403.57901661 70.60641039 412.92623368 67.46533306 422.2734375 64.32421875 C423.29893078 63.97970169 424.32442406 63.63518463 425.38099289 63.28022766 C442.60428261 57.49304763 459.8085848 51.65129414 477.00604248 45.78785706 C489.46871636 41.53921414 501.93750106 37.3092498 514.4140625 33.1015625 C515.21925701 32.82996874 516.02445152 32.55837498 516.85404587 32.2785511 C524.06758713 29.84558751 531.28174474 27.41445393 538.49609375 24.98388672 C542.53303415 23.62372514 546.56966762 22.26265587 550.60610199 20.90099335 C552.17408114 20.37219698 553.74215924 19.84369391 555.31034088 19.31549835 C563.43531521 16.5785022 571.55127659 13.81967321 579.64355469 10.98730469 C580.32401793 10.74978422 581.00448116 10.51226376 581.7055645 10.2675457 C584.88668843 9.15698587 588.06533722 8.04063808 591.24038696 6.91275024 C592.34232391 6.52694794 593.44426086 6.14114563 594.57958984 5.74365234 C595.5357016 5.40506195 596.49181335 5.06647156 597.47689819 4.71762085 C600 4 600 4 604 4 C604.11592091 13.17079003 604.20472845 22.34132735 604.25906086 31.51269054 C604.28513973 35.77150055 604.32050551 40.02980883 604.37719727 44.28833008 C604.43157963 48.3991672 604.46143341 52.50952218 604.47438622 56.6206913 C604.48361508 58.1880178 604.50163749 59.75531832 604.52865028 61.32243919 C604.56502658 63.52046808 604.56994225 65.71651279 604.56762695 67.91479492 C604.58428154 69.79010139 604.58428154 69.79010139 604.60127258 71.70329285 C603.83685982 75.89447849 602.19812407 77.28931145 599 80 C585.33772239 95.34111681 581.65115331 114.40237046 582.77685547 134.38623047 C583.89850839 147.52454143 588.82945021 160.59904943 597 171 C599 174 599 174 599.125 176.8125 C593.6529828 192.31654874 584.94942832 199.25099522 570.625 206.3125 C569.12968129 207.06291311 567.63464882 207.81389683 566.13989258 208.56542969 C504.99900689 239.13153884 439.01171258 256.73784931 371 263 C369.9171875 263.10441406 368.834375 263.20882813 367.71875 263.31640625 C332.50119225 266.59728722 296.19332146 266.51789822 261 263 C259.68854004 262.87109375 258.37708008 262.7421875 257.02587891 262.609375 C185.12167333 255.39769516 115.35452157 236.4470565 50.00439453 205.41796875 C47.94848454 204.4476514 45.88661421 203.4898905 43.81982422 202.54296875 C24.63089782 193.74768155 10.33093261 184.53835558 1.93463135 164.29338074 C-0.6654873 157.01904528 -0.53212304 149.85742136 -0.45410156 142.24731445 C-0.45297101 140.68906178 -0.453611 139.13080698 -0.45587158 137.57255554 C-0.45701155 133.37480323 -0.43361964 129.17751522 -0.40557575 124.97987008 C-0.38044146 120.58102079 -0.37821067 116.18215893 -0.37347412 111.7832489 C-0.36107949 103.46784431 -0.32830583 95.15265198 -0.28807616 86.83734053 C-0.24324863 77.3645025 -0.22134389 67.89165393 -0.20129442 58.4187361 C-0.15956977 38.94570407 -0.0892866 19.47286915 0 0 Z " fill="#8750f7" transform="translate(171,301)"/>
<path d="M0 0 C0.66 0.33 1.32 0.66 2 1 C-2.62 5.62 -7.24 10.24 -12 15 C-12 10.09687565 -8.29800369 7.38658643 -5 4 C-3.37458956 2.61667196 -1.72614587 1.25537882 0 0 Z " fill="#8750f7" transform="translate(842,375)"/>
<path d="M0 0 C0.66 0.33 1.32 0.66 2 1 C0.71451591 2.33929505 -0.57858155 3.67128643 -1.875 5 C-2.59429688 5.7425 -3.31359375 6.485 -4.0546875 7.25 C-6 9 -6 9 -8 9 C-6.4169423 4.7257442 -3.49431596 2.73468206 0 0 Z " fill="#8750f7" transform="translate(10,161)"/>
</svg>
