<?xml version="1.0" encoding="UTF-8"?>
<svg version="1.1" xmlns="http://www.w3.org/2000/svg" width="828" height="980">
<path d="M0 0 C0.65767868 0.29177124 1.31535736 0.58354248 1.9929657 0.88415527 C4.08818273 1.81699159 6.17487912 2.76734315 8.26171875 3.71875 C9.61860678 4.3267137 10.97602608 4.93349313 12.33398438 5.5390625 C13.00736343 5.84115128 13.68074249 6.14324005 14.37452698 6.45448303 C15.76472402 7.07480136 17.15782746 7.68864181 18.55357361 8.29637146 C22.15966651 9.88310799 25.59812864 11.55944878 28.99243164 13.56274414 C43.07449138 21.48016414 56.29798426 18.88265455 71.76171875 16.65625 C75.58246421 16.15315909 79.40473646 15.66413023 83.22795105 15.18019104 C85.58930808 14.87628833 87.94894774 14.55863792 90.30635071 14.22544861 C91.36903671 14.07942703 92.43172272 13.93340546 93.52661133 13.78295898 C94.92077019 13.58354958 94.92077019 13.58354958 96.34309387 13.38011169 C99.9160617 13.15888663 102.83695209 13.33393563 105.6875 15.6015625 C106.20699219 16.17648438 106.72648437 16.75140625 107.26171875 17.34375 C109.63133795 19.85574975 112.01660234 22.21827657 114.63671875 24.46875 C117.53106124 26.95677133 120.34435454 29.51239551 123.12817383 32.12353516 C127.76359156 36.44912484 132.49204908 40.6392891 137.44921875 44.59375 C138.40828125 45.36460938 139.36734375 46.13546875 140.35546875 46.9296875 C148.77890549 52.63100603 157.30001044 54.62197121 167.19921875 56.12109375 C202.99155992 61.63482632 202.99155992 61.63482632 209.41015625 69.1640625 C212.14080876 73.66120924 213.74772096 78.40488062 215.11083984 83.46826172 C216.44134088 87.83326599 218.72985941 91.49613079 221.13671875 95.34375 C221.55074951 96.03291504 221.96478027 96.72208008 222.39135742 97.43212891 C223.559428 99.37272796 224.74919026 101.29778603 225.94921875 103.21875 C226.985625 104.88357422 226.985625 104.88357422 228.04296875 106.58203125 C237.60505509 120.62188563 253.6448976 127.41121115 268.25 135.140625 C269.19915283 135.65729736 270.14830566 136.17396973 271.1262207 136.70629883 C272.99748227 137.70884707 274.89266688 138.66804553 276.80932617 139.58081055 C283.25606284 142.88251352 283.25606284 142.88251352 285.0847168 146.40771484 C285.83469909 149.11573313 286.26707732 151.74581244 286.63671875 154.53125 C287.01318169 156.66947208 287.3908567 158.80748099 287.76953125 160.9453125 C288.16423759 163.36955162 288.55736676 165.79404787 288.94921875 168.21875 C292.48029883 194.20589516 292.48029883 194.20589516 307.94921875 214.21875 C309.92330437 216.21313302 311.77804402 218.30463918 313.63671875 220.40625 C314.53724657 221.39618622 315.43955555 222.38450545 316.34375 223.37109375 C317.20355469 224.31082031 318.06335938 225.25054687 318.94921875 226.21875 C319.77808594 227.10691406 320.60695313 227.99507812 321.4609375 228.91015625 C329.6165074 237.73974019 334.20425318 244.06815561 334.109375 256.28710938 C333.80650617 263.72216983 332.85082101 271.08650328 331.94921875 278.46875 C331.66023476 280.85626201 331.3736359 283.24396815 331.09326172 285.63250732 C330.92038771 287.10354433 330.74272969 288.57403134 330.55908203 290.04376221 C329.54114049 298.66323856 329.34213648 305.31946093 333.23828125 313.2265625 C333.57918793 313.95511444 333.9200946 314.68366638 334.27133179 315.43429565 C335.35627678 317.74543443 336.46394292 320.04468909 337.57421875 322.34375 C346.08533593 340.2381348 346.08533593 340.2381348 349.53515625 348.3984375 C350.02806152 349.54812012 350.5209668 350.69780273 351.02880859 351.88232422 C352.91775748 358.72963868 350.35040261 364.24229615 347.52734375 370.390625 C347.18548035 371.15368958 346.84361694 371.91675415 346.49139404 372.70294189 C345.40227491 375.12870443 344.30099272 377.54871314 343.19921875 379.96875 C342.47445088 381.5777606 341.75048542 383.18713288 341.02734375 384.796875 C340.31907049 386.36981872 339.61073799 387.94273576 338.90234375 389.515625 C338.55828491 390.28144897 338.21422607 391.04727295 337.85974121 391.83630371 C336.39435537 395.08442572 334.90693284 398.30367632 333.31835938 401.49414062 C330.37701924 407.44734667 329.22125865 411.62456602 329.94921875 418.21875 C330.07941406 419.49427734 330.20960938 420.76980469 330.34375 422.08398438 C330.92191575 427.51293021 331.57837089 432.93227763 332.24023438 438.3515625 C335.7590592 467.36391416 335.7590592 467.36391416 328.62304688 477.01171875 C327.19993778 478.79998067 325.71989934 480.51290319 324.19921875 482.21875 C323.66917236 482.82541504 323.13912598 483.43208008 322.59301758 484.05712891 C319.11986384 487.99888693 315.51562446 491.7691928 311.74609375 495.4296875 C309.27842487 497.88662739 307.0033171 500.479653 304.77319336 503.15283203 C302.94921875 505.21875 302.94921875 505.21875 301.23168945 506.70019531 C294.02164836 513.34811139 293.37568434 522.77613036 291.69921875 531.96875 C291.37355656 533.66193388 291.04544847 535.35464924 290.71484375 537.046875 C290.23345037 539.51281873 289.75312681 541.97885762 289.28108215 544.4466095 C286.65751749 558.10109311 284.3465955 567.48750386 272.94921875 576.21875 C269.24676767 578.52838735 265.45177569 580.63323603 261.60656738 582.69519043 C259.78392037 583.67797928 257.97461917 584.68226309 256.16699219 585.69238281 C246.28325709 591.19091935 246.28325709 591.19091935 241.59765625 593.01953125 C229.69908455 598.09351987 225.21870529 609.96279825 219.66767883 620.91763306 C216.68445197 626.79926373 213.43932867 632.5122649 210.13671875 638.21875 C209.63897949 639.08975342 209.14124023 639.96075684 208.62841797 640.8581543 C203.3512611 650.08249067 203.3512611 650.08249067 200.69230652 650.98365784 C199.75252457 651.16637741 198.81274261 651.34909698 197.84448242 651.53735352 C196.77965134 651.75089981 195.71482025 651.96444611 194.61772156 652.1844635 C193.46254532 652.40331711 192.30736908 652.62217072 191.1171875 652.84765625 C189.93328934 653.08282455 188.74939117 653.31799286 187.52961731 653.56028748 C183.73419105 654.31237439 179.93575733 655.04764751 176.13671875 655.78125 C172.34896812 656.52102064 168.56197391 657.26433994 164.7759552 658.01292419 C162.41761382 658.47834852 160.05817059 658.93823145 157.69755554 659.39198303 C156.62326797 659.60237717 155.54898041 659.8127713 154.44213867 660.02954102 C153.49996994 660.211465 152.55780121 660.39338898 151.58708191 660.58082581 C146.82127698 661.73335802 143.54506598 663.25623759 140.0234375 666.66796875 C139.30865234 667.35181641 138.59386719 668.03566406 137.85742188 668.74023438 C137.12458984 669.45501953 136.39175781 670.16980469 135.63671875 670.90625 C134.18363873 672.30738793 132.72921763 673.70713644 131.2734375 675.10546875 C130.55494629 675.79592285 129.83645508 676.48637695 129.09619141 677.19775391 C126.40955974 679.72674378 123.63897631 682.14622536 120.84887695 684.55981445 C117.33142737 687.63153658 113.93899127 690.83898651 110.53125 694.03125 C109.01645894 695.44069588 107.48352233 696.83057057 105.94921875 698.21875 C105.34206528 698.7735202 104.7349118 699.32829041 104.10935974 699.89987183 C101.26484139 701.63659789 99.72005067 701.38621889 96.43383789 700.99267578 C95.32911636 700.86909698 94.22439484 700.74551819 93.0861969 700.61819458 C91.30329506 700.3933992 91.30329506 700.3933992 89.484375 700.1640625 C87.64618446 699.95437332 87.64618446 699.95437332 85.77085876 699.740448 C82.51453958 699.36715495 79.26027323 698.98011116 76.00653076 698.58508301 C71.4272185 698.03107632 66.84572072 697.49605712 62.26329041 696.96847534 C59.82490376 696.6867322 57.38747025 696.3965865 54.95118713 696.09719849 C53.84331345 695.96731537 52.73543976 695.83743225 51.59399414 695.70361328 C50.62232803 695.5857547 49.65066193 695.46789612 48.64955139 695.34646606 C44.37268603 695.14418565 40.88263096 696.0942105 37.0078125 697.8293457 C35.90010498 698.32039543 35.90010498 698.32039543 34.77001953 698.82136536 C33.98353027 699.1755101 33.19704102 699.52965485 32.38671875 699.89453125 C30.68494143 700.64788947 28.98311695 701.40114116 27.28125 702.15429688 C24.62569678 703.33668402 21.97121629 704.52140642 19.31787109 705.70874023 C-10.09257315 718.84400982 -10.09257315 718.84400982 -18.97842407 715.49147034 C-21.21693466 714.54943033 -23.42535365 713.55560801 -25.6328125 712.54296875 C-26.44642746 712.17653763 -27.26004242 711.81010651 -28.09831238 711.43257141 C-30.68967474 710.26372185 -33.27650693 709.08521333 -35.86328125 707.90625 C-37.59019954 707.12499806 -39.31741049 706.34439271 -41.04492188 705.56445312 C-44.2437899 704.11950495 -47.44072973 702.67044391 -50.63598633 701.2175293 C-51.36538422 700.89196045 -52.0947821 700.5663916 -52.84628296 700.23095703 C-54.34876405 699.5410849 -55.83545165 698.8159945 -57.30630493 698.06103516 C-62.79950981 695.33646359 -66.68459961 694.80186127 -72.72265625 695.6328125 C-73.51955368 695.72233185 -74.31645111 695.8118512 -75.13749695 695.90408325 C-76.82665152 696.09688233 -78.51457567 696.30074653 -80.20114136 696.51501465 C-82.82587184 696.84692281 -85.45256303 697.14497833 -88.08227539 697.43457031 C-95.40599473 698.25107767 -102.71002889 699.14632032 -110 700.2265625 C-122.5495186 701.99504394 -122.5495186 701.99504394 -126.79296875 699.80078125 C-128.89766591 697.74770874 -130.41671813 695.65514231 -132.05078125 693.21875 C-133.22093136 692.11433866 -134.43149484 691.05141029 -135.67578125 690.03125 C-139.56102892 686.69116554 -143.30651236 683.21471734 -147.05078125 679.71875 C-151.97283026 675.12935104 -156.89349087 670.54533589 -162.05078125 666.21875 C-162.69917969 665.55746094 -163.34757813 664.89617188 -164.015625 664.21484375 C-168.66370737 661.15799679 -173.6474109 660.43804019 -179.05078125 659.34375 C-180.22382813 659.09326904 -181.396875 658.84278809 -182.60546875 658.5847168 C-188.44285961 657.34635382 -194.29110955 656.16645597 -200.14477539 655.00805664 C-202.15177548 654.6102272 -204.15797501 654.20855556 -206.1640625 653.80615234 C-208.7216836 653.29623467 -211.28157327 652.79754529 -213.84375 652.31103516 C-215.00519531 652.08077637 -216.16664063 651.85051758 -217.36328125 651.61328125 C-218.90435547 651.31707886 -218.90435547 651.31707886 -220.4765625 651.01489258 C-225.27071555 649.53217889 -226.7867193 646.19967836 -229.16796875 641.9765625 C-229.76810791 640.92009521 -230.36824707 639.86362793 -230.98657227 638.77514648 C-231.62651123 637.64278564 -232.2664502 636.5104248 -232.92578125 635.34375 C-234.28227434 632.98065765 -235.64550401 630.62146225 -237.0078125 628.26171875 C-239.51868435 623.90802685 -241.99004654 619.53419979 -244.4375 615.14453125 C-250.25986898 604.92578857 -255.00668153 597.85615622 -265.703125 592.44775391 C-268.63492313 590.91295027 -271.47722213 589.24782948 -274.33203125 587.57421875 C-278.80431114 584.95318379 -283.28248093 582.34501452 -287.78125 579.76953125 C-288.82458496 579.16189941 -289.86791992 578.55426758 -290.94287109 577.92822266 C-294.00950911 576.1795186 -294.00950911 576.1795186 -297.19384766 574.84912109 C-304.27424541 571.66102156 -304.27424541 571.66102156 -306.26733398 567.95922852 C-307.14324368 564.71891427 -307.60988635 561.54826669 -308.05078125 558.21875 C-308.3135678 556.57518598 -308.58295471 554.93266944 -308.85742188 553.29101562 C-309.08117493 551.95097473 -309.08117493 551.95097473 -309.30944824 550.5838623 C-309.96337948 546.70977697 -310.62727237 542.83746173 -311.29833984 538.96630859 C-311.6315625 536.97830678 -311.94527552 534.98692998 -312.23876953 532.99267578 C-314.49193844 517.87922719 -318.77672907 509.23209109 -330.16571045 498.99700928 C-333.38141875 495.96350883 -336.18264669 492.576299 -339.05078125 489.21875 C-340.25470281 487.90259356 -341.46558437 486.59265878 -342.69140625 485.296875 C-343.28695312 484.66394531 -343.8825 484.03101563 -344.49609375 483.37890625 C-345.71438799 482.089413 -346.93314934 480.80036094 -348.15234375 479.51171875 C-348.74273437 478.88394531 -349.333125 478.25617188 -349.94140625 477.609375 C-350.46766602 477.05282227 -350.99392578 476.49626953 -351.53613281 475.92285156 C-356.45761961 470.38578228 -356.45761961 470.38578228 -356.30883789 465.66137695 C-356.26764328 464.33947861 -356.26764328 464.33947861 -356.22561646 462.99087524 C-355.9331539 458.35369235 -355.46220827 453.75101448 -354.921875 449.13671875 C-354.68935817 447.05014079 -354.45693913 444.96355193 -354.22460938 442.87695312 C-353.85602465 439.62675084 -353.48490455 436.37685765 -353.11157227 433.12719727 C-352.75022428 429.96439273 -352.39812311 426.8006584 -352.046875 423.63671875 C-351.93234482 422.66582809 -351.81781464 421.69493744 -351.69981384 420.69462585 C-351.54954491 419.3321447 -351.54954491 419.3321447 -351.39624023 417.94213867 C-351.25967262 416.7516114 -351.25967262 416.7516114 -351.12034607 415.53703308 C-350.99805698 411.46168667 -351.98997369 408.00339423 -353.66137695 404.3215332 C-353.98874344 403.5933992 -354.31610992 402.8652652 -354.65339661 402.11506653 C-355.00754135 401.34103989 -355.3616861 400.56701324 -355.7265625 399.76953125 C-356.09299362 398.95687302 -356.45942474 398.14421478 -356.83695984 397.30693054 C-358.00752145 394.71279817 -359.18497961 392.12187473 -360.36328125 389.53125 C-362.97173858 383.77728411 -365.56826682 378.01839496 -368.13824463 372.24713135 C-368.91403693 370.52270452 -369.71488977 368.80958716 -370.52099609 367.09912109 C-370.89562988 366.26590332 -371.27026367 365.43268555 -371.65625 364.57421875 C-371.96071045 363.92477295 -372.2651709 363.27532715 -372.57885742 362.60620117 C-373.96883237 355.57435171 -371.56159673 349.14668015 -368.62890625 342.8515625 C-368.28704285 342.09132782 -367.94517944 341.33109314 -367.59295654 340.54782104 C-366.5073325 338.14092335 -365.40449748 335.74239645 -364.30078125 333.34375 C-363.57566308 331.7440148 -362.85169555 330.14375752 -362.12890625 328.54296875 C-361.59920731 327.37488174 -361.59920731 327.37488174 -361.05880737 326.18319702 C-360.35695613 324.63190416 -359.65895842 323.07886193 -358.96487427 321.52407837 C-357.54528683 318.36810207 -356.12480568 315.34407976 -354.36279297 312.36083984 C-349.14019099 303.27704529 -351.42738637 293.53538551 -352.67578125 283.59375 C-352.88561833 281.745108 -353.09267086 279.8961477 -353.296875 278.046875 C-353.76361835 273.87048706 -354.26105663 269.69877512 -354.77354431 265.52778625 C-355.14890325 262.40151674 -355.49078976 259.27190351 -355.82853699 256.14137268 C-356.01618469 254.51804292 -356.25264883 252.90046693 -356.5 251.28515625 C-356.92350045 246.83493021 -356.80990181 244.22891831 -354.06640625 240.578125 C-352.40156924 238.93346783 -350.68821494 237.33591078 -348.921875 235.80078125 C-345.97225567 233.1481304 -343.46681078 230.33436762 -340.88696289 227.33081055 C-337.27350768 223.17444822 -333.44312474 219.21644045 -329.65625 215.21875 C-328.72232422 214.22875 -328.72232422 214.22875 -327.76953125 213.21875 C-327.22232422 212.64125 -326.67511719 212.06375 -326.11132812 211.46875 C-325.09135742 210.355 -325.09135742 210.355 -324.05078125 209.21875 C-323.49404221 208.69545105 -322.93730316 208.1721521 -322.36369324 207.63299561 C-316.66095403 201.89579579 -315.40941504 196.37772656 -314.1015625 188.546875 C-313.87679733 187.3468988 -313.65203217 186.14692261 -313.42045593 184.9105835 C-312.70961711 181.10073912 -312.03384377 177.28587233 -311.36328125 173.46875 C-310.67822002 169.63827425 -309.98544388 165.80973132 -309.27397156 161.98406982 C-308.83352573 159.60979826 -308.40877215 157.23254941 -308.00154114 154.85235596 C-307.80420883 153.77733826 -307.60687653 152.70232056 -307.40356445 151.59472656 C-307.23814651 150.65066956 -307.07272858 149.70661255 -306.90229797 148.73394775 C-305.32661505 144.07971836 -301.81825717 141.86186674 -297.62109375 139.66015625 C-296.32002686 138.96768799 -296.32002686 138.96768799 -294.99267578 138.26123047 C-294.06310059 137.77283691 -293.13352539 137.28444336 -292.17578125 136.78125 C-290.1952757 135.71472212 -288.21614899 134.64563051 -286.23828125 133.57421875 C-284.71074219 132.74736572 -284.71074219 132.74736572 -283.15234375 131.90380859 C-264.09415802 122.46557595 -264.09415802 122.46557595 -250.05078125 107.21875 C-249.27890864 105.9508689 -248.50532752 104.68402708 -247.73046875 103.41796875 C-245.09882985 99.05868129 -242.57109954 94.64303526 -240.05078125 90.21875 C-238.31038111 87.17144421 -236.55851423 84.1310831 -234.80078125 81.09375 C-234.41293457 80.40788818 -234.02508789 79.72202637 -233.62548828 79.01538086 C-228.86502103 70.78991446 -224.40974005 65.02628363 -215.05078125 62.21875 C-207.99370274 60.47121306 -200.83493792 59.1622501 -193.69702148 57.79418945 C-179.51719654 55.05426585 -167.14926222 52.00112791 -156.05078125 42.21875 C-155.25027344 41.51492187 -154.44976562 40.81109375 -153.625 40.0859375 C-151.08223234 37.81603293 -148.56547881 35.51967883 -146.05078125 33.21875 C-143.59330909 31.00978626 -141.13446087 28.80796019 -138.63671875 26.64453125 C-135.9409531 24.22177912 -135.9409531 24.22177912 -133.52734375 21.13671875 C-130.32100859 17.33952544 -127.07430193 13.72908494 -121.97949219 12.86914062 C-113.94383088 12.72259361 -105.81580994 14.43968005 -97.9765625 16.04443359 C-70.25258582 21.65278464 -52.71570215 16.58181444 -27.98632812 3.30078125 C-18.05249741 -2.01065661 -10.87858017 -4.89878757 0 0 Z M-165.05078125 165.21875 C-166.02273438 165.98703125 -166.9946875 166.7553125 -167.99609375 167.546875 C-183.64662021 180.27543616 -198.23828497 194.84774005 -210.05078125 211.21875 C-210.86654743 212.29574467 -211.68428002 213.37125253 -212.50390625 214.4453125 C-236.03359991 245.73342069 -253.96814452 288.00579749 -257.05078125 327.21875 C-257.1590625 328.36472656 -257.26734375 329.51070312 -257.37890625 330.69140625 C-262.99832291 401.00805424 -242.52609297 465.80678154 -196.98828125 519.53125 C-188.1540489 529.76043754 -178.68351168 538.86240359 -168.05078125 547.21875 C-167.00504775 548.07634455 -165.96083339 548.93579411 -164.91796875 549.796875 C-126.30066263 581.3695553 -74.73175597 602.20605993 -24.62890625 602.421875 C-23.56702087 602.42757507 -22.5051355 602.43327515 -21.41107178 602.43914795 C-19.17233251 602.44853633 -16.93357981 602.45510718 -14.69482422 602.45898438 C-11.35097559 602.46860558 -8.0077653 602.4996544 -4.6640625 602.53125 C14.19479286 602.6255935 32.81270859 601.29107953 51.01171875 596.03125 C52.08623291 595.73009277 53.16074707 595.42893555 54.26782227 595.11865234 C89.7684175 584.93527718 121.83499825 568.24910055 149.94921875 544.21875 C150.70976563 543.57035156 151.4703125 542.92195313 152.25390625 542.25390625 C164.77570768 531.27097941 176.79226431 519.50168015 186.62792969 506.02734375 C187.53638482 504.78384123 188.45426825 503.5471893 189.37988281 502.31640625 C227.72992419 451.31766789 243.50432145 385.37573643 234.9296875 322.41796875 C233.49462709 312.88113723 231.37772582 303.54638245 228.94921875 294.21875 C228.76665527 293.48962402 228.5840918 292.76049805 228.39599609 292.00927734 C220.14569083 259.38133879 203.10595202 229.17036909 181.94921875 203.21875 C181.50143066 202.66799805 181.05364258 202.11724609 180.59228516 201.54980469 C169.63494688 188.18162347 157.63969992 175.80315379 143.94921875 165.21875 C143.0159375 164.45691406 142.08265625 163.69507813 141.12109375 162.91015625 C126.71711876 151.36850962 110.67900226 141.96153138 93.94921875 134.21875 C93.33900879 133.92838867 92.72879883 133.63802734 92.10009766 133.33886719 C60.38862785 118.29077463 26.7786541 112.29010175 -8.05078125 111.21875 C-8.80327148 111.19538574 -9.55576172 111.17202148 -10.33105469 111.14794922 C-65.83252222 109.68996365 -122.14129341 130.22244043 -165.05078125 165.21875 Z " fill="#8750f7" transform="translate(424.05078125,2.78125)"/>
<path d="M0 0 C0.7331543 0.00126892 1.46630859 0.00253784 2.22167969 0.00384521 C44.52575495 0.14336749 85.78513966 12.75489123 119.9375 38.1875 C120.60507324 38.6829834 121.27264648 39.1784668 121.96044922 39.68896484 C164.92710817 72.0631125 192.68178754 118.98890916 200.65527344 172.13232422 C207.58476075 222.59289875 194.68095213 275.34899908 164.32617188 316.36474609 C155.02292527 328.49199265 144.82829392 340.53258186 132.9375 350.1875 C131.87342521 351.08691705 130.80965149 351.98669034 129.74609375 352.88671875 C120.3853213 360.69987742 110.4935804 367.11327675 99.9375 373.1875 C99.0108252 373.73615723 99.0108252 373.73615723 98.06542969 374.29589844 C80.2248666 384.83400143 60.19649376 391.25841152 39.9375 395.1875 C39.15004395 395.34976074 38.36258789 395.51202148 37.55126953 395.67919922 C13.65767112 400.46978413 -13.23618254 400.13923872 -37.0625 395.1875 C-37.91908203 395.01589355 -38.77566406 394.84428711 -39.65820312 394.66748047 C-86.64317971 385.05223014 -129.9304861 358.42814285 -158.74804688 319.92871094 C-159.96902849 318.3113185 -161.22536855 316.72078516 -162.484375 315.1328125 C-179.56295955 292.75205301 -190.36620165 265.59391573 -196.0625 238.1875 C-196.3102417 237.0109082 -196.3102417 237.0109082 -196.56298828 235.81054688 C-206.34565391 186.96803431 -195.07118039 133.38094193 -168.78125 91.47265625 C-154.87592203 70.69023673 -134.996243 49.08659765 -114.0625 35.1875 C-113.04929687 34.51460937 -112.03609375 33.84171875 -110.9921875 33.1484375 C-107.72774386 31.07106427 -104.41848261 29.11331189 -101.0625 27.1875 C-100.4658252 26.83864746 -99.86915039 26.48979492 -99.25439453 26.13037109 C-68.73125524 8.4331487 -35.09267155 -0.0624813 0 0 Z M65.9375 99.1875 C64.59297804 100.4866481 64.59297804 100.4866481 63.25 102.23046875 C62.72124268 102.8855542 62.19248535 103.54063965 61.64770508 104.21557617 C61.0833374 104.92818604 60.51896973 105.6407959 59.9375 106.375 C59.35444092 107.10243408 58.77138184 107.82986816 58.1706543 108.5793457 C53.00351576 115.0476386 47.95291611 121.60118683 42.9375 128.1875 C41.27340336 130.35614706 39.60543741 132.52180626 37.9375 134.6875 C37.10409591 135.7707789 36.2707625 136.85411219 35.4375 137.9375 C33.77083333 140.10416667 32.10416667 142.27083333 30.4375 144.4375 C29.8185083 145.24223755 29.8185083 145.24223755 29.18701172 146.06323242 C28.35543189 147.14422121 27.52372658 148.22511349 26.69189453 149.3059082 C24.58068208 152.04932666 22.47182109 154.79449919 20.3671875 157.54296875 C15.30107129 164.15430349 10.17579306 170.71125096 4.9375 177.1875 C4.195 178.11691406 3.4525 179.04632813 2.6875 180.00390625 C-1.63532588 185.37092825 -6.04398173 190.45944259 -11.0625 195.1875 C-16.28518135 193.55023085 -20.2469051 190.30885398 -24.5625 187.0625 C-25.39128662 186.44576416 -26.22007324 185.82902832 -27.07397461 185.19360352 C-34.17880549 179.89140163 -41.21493167 174.49916272 -48.25561523 169.11230469 C-54.16010319 164.60620464 -60.11113806 160.17161111 -66.125 155.8125 C-66.86886963 155.27101318 -67.61273926 154.72952637 -68.37915039 154.17163086 C-69.07000732 153.6741333 -69.76086426 153.17663574 -70.47265625 152.6640625 C-71.07215088 152.23174316 -71.67164551 151.79942383 -72.28930664 151.35400391 C-74.15059487 150.12954636 -76.05236598 149.14433817 -78.0625 148.1875 C-91.24955789 163.45345879 -103.11612102 179.87666602 -114.75146484 196.34277344 C-115.599155 197.53553821 -116.46316395 198.71694335 -117.34619141 199.88378906 C-119.52831698 202.73536347 -119.52831698 202.73536347 -119.87133789 206.17382812 C-118.87892767 208.64451919 -117.80897405 209.54461476 -115.6953125 211.1484375 C-114.98463623 211.69483887 -114.27395996 212.24124023 -113.54174805 212.80419922 C-112.76484619 213.38443848 -111.98794434 213.96467773 -111.1875 214.5625 C-110.38030518 215.17754395 -109.57311035 215.79258789 -108.74145508 216.42626953 C-102.34018443 221.28428284 -95.86819576 226.04883374 -89.38330078 230.79443359 C-83.38710197 235.18709702 -77.46441109 239.66913745 -71.5625 244.1875 C-58.0599467 254.51480667 -44.35814741 264.55822008 -30.56542969 274.49365234 C-25.73549275 277.97364005 -20.92370563 281.47709433 -16.125 285 C-15.51519287 285.44529053 -14.90538574 285.89058105 -14.27709961 286.34936523 C-11.43401719 288.42814904 -8.61174729 290.5256873 -5.828125 292.68359375 C-4.85359375 293.42738281 -3.8790625 294.17117188 -2.875 294.9375 C-2.03582031 295.59234375 -1.19664062 296.2471875 -0.33203125 296.921875 C1.79732337 298.34409283 1.79732337 298.34409283 3.94921875 298.21875 C6.90435584 296.68602664 8.48293836 294.52509787 10.5625 291.9375 C10.99852539 291.39883301 11.43455078 290.86016602 11.88378906 290.30517578 C15.72834122 285.52781532 19.46756949 280.66674546 23.18359375 275.7890625 C26.34133235 271.64765175 29.54717817 267.54407536 32.75 263.4375 C38.52029459 256.03077121 44.23817768 248.58548801 49.93359375 241.12109375 C52.52946158 237.71907611 55.13729412 234.32660261 57.75 230.9375 C63.43386899 223.55489795 69.07612039 216.1407077 74.71875 208.7265625 C77.48476815 205.09264863 80.25567885 201.4625595 83.03125 197.8359375 C90.07365848 188.62774607 97.05301361 179.38048477 103.90600586 170.03027344 C108.25681903 164.09523431 112.66279101 158.20390616 117.12011719 152.34838867 C117.80895996 151.43730347 117.80895996 151.43730347 118.51171875 150.5078125 C118.90963623 149.98461426 119.30755371 149.46141602 119.7175293 148.92236328 C121.24738355 146.7468291 122.58960334 144.47914396 123.9375 142.1875 C118.06543782 136.81503913 112.03048727 131.8451043 105.625 127.125 C103.87488845 125.82436884 102.12489198 124.52358281 100.375 123.22265625 C99.48296875 122.56152832 98.5909375 121.90040039 97.671875 121.21923828 C92.31257419 117.23708638 86.98370385 113.21420954 81.64916992 109.19897461 C79.41641282 107.52238247 77.17869048 105.85279682 74.9375 104.1875 C74.25896973 103.67993164 73.58043945 103.17236328 72.88134766 102.64941406 C69.73960468 100.06522594 69.73960468 100.06522594 65.9375 99.1875 Z " fill="#8750f7" transform="translate(412.0625,160.8125)"/>
<path d="M0 0 C1.61889648 1.93334961 1.61889648 1.93334961 3.37109375 4.65234375 C4.02142578 5.6475 4.67175781 6.64265625 5.34179688 7.66796875 C6.37916992 9.28638672 6.37916992 9.28638672 7.4375 10.9375 C8.89268374 13.16660657 10.34960114 15.39448818 11.80859375 17.62109375 C12.52515137 18.7179248 13.24170898 19.81475586 13.97998047 20.94482422 C16.56848967 24.85981143 19.26168824 28.68901624 22 32.5 C27.27610839 39.8869086 32.31483806 47.41945811 37.33325195 54.9831543 C43.07120096 63.62489949 48.86953169 72.22445585 54.6875 80.8125 C56.65119832 83.71213352 58.61469418 86.61190409 60.578125 89.51171875 C61.34070114 90.63792381 61.34070114 90.63792381 62.11868286 91.78688049 C78.23447252 115.59199578 94.33623561 139.40736713 110.23828125 163.35595703 C112.16099198 166.24162184 114.09522012 169.11934954 116.03125 171.99609375 C116.68746338 172.97336426 117.34367676 173.95063477 118.01977539 174.95751953 C119.26101324 176.80539163 120.50482458 178.65153877 121.75170898 180.49560547 C122.29641846 181.30787598 122.84112793 182.12014648 123.40234375 182.95703125 C123.88179443 183.66835205 124.36124512 184.37967285 124.85522461 185.11254883 C126 187 126 187 127 190 C119.37586208 193.28866907 111.7413436 196.21277382 103.828125 198.72265625 C102.77602844 199.06078842 101.72393188 199.39892059 100.63995361 199.74729919 C97.1783651 200.8578531 93.71429747 201.96042822 90.25 203.0625 C87.79095311 203.84876283 85.33197012 204.63522556 82.87304688 205.421875 C59.92275429 212.75485971 36.92766257 219.94674082 13.92315674 227.1075592 C11.43034055 227.88426954 8.93810214 228.66283686 6.44647217 229.44334412 C0.44218243 231.32148496 -5.56618933 233.17689805 -11.59615326 234.97064972 C-14.55026766 235.85122745 -17.50071262 236.7437426 -20.45088196 237.63743591 C-21.86344625 238.06183386 -23.27772773 238.48056356 -24.69377136 238.89320374 C-26.66181893 239.4671373 -28.62303713 240.06053134 -30.58398438 240.65820312 C-31.70430054 240.99049927 -32.8246167 241.32279541 -33.97888184 241.66516113 C-37.49558603 243.21896777 -39.45572446 245.14948152 -42 248 C-42.50370117 248.55381348 -43.00740234 249.10762695 -43.52636719 249.67822266 C-43.94563477 250.1685498 -44.36490234 250.65887695 -44.796875 251.1640625 C-45.51520508 252.00227539 -45.51520508 252.00227539 -46.24804688 252.85742188 C-46.74369141 253.44072266 -47.23933594 254.02402344 -47.75 254.625 C-48.27658203 255.24181641 -48.80316406 255.85863281 -49.34570312 256.49414062 C-53.17876558 260.99787257 -56.92893829 265.56463413 -60.65625 270.15625 C-63.39302138 273.47686594 -66.19106385 276.74043709 -69 280 C-73.31934272 285.01314773 -77.55097277 290.08537515 -81.72265625 295.22265625 C-84.74419944 298.90759143 -87.83035951 302.53568321 -90.91650391 306.16650391 C-93.79557843 309.55973475 -96.63211492 312.9827672 -99.4375 316.4375 C-104.33116358 322.44573465 -109.38026792 328.31459133 -114.43847656 334.18408203 C-116.0025853 336.00300648 -117.56081076 337.82680079 -119.1171875 339.65234375 C-124.32820807 345.76127593 -129.58099058 351.81742836 -134.98046875 357.76171875 C-136.89152427 359.87977448 -138.76205583 362.02714567 -140.625 364.1875 C-142.94955861 366.84182157 -145.30911892 369.45188356 -147.75 372 C-148.57757812 372.86625 -148.57757812 372.86625 -149.421875 373.75 C-151 375 -151 375 -154 375 C-155.38769531 373.42138672 -155.38769531 373.42138672 -156.828125 371.1796875 C-157.37267334 370.34574463 -157.91722168 369.51180176 -158.47827148 368.65258789 C-159.06294189 367.73598389 -159.6476123 366.81937988 -160.25 365.875 C-161.5157249 363.93280976 -162.78269127 361.99142811 -164.05078125 360.05078125 C-164.70385254 359.04611816 -165.35692383 358.04145508 -166.02978516 357.00634766 C-169.10369849 352.31586825 -172.26784484 347.68859587 -175.4375 343.0625 C-176.6966704 341.22009023 -177.95578469 339.37764211 -179.21484375 337.53515625 C-179.83987793 336.62137207 -180.46491211 335.70758789 -181.10888672 334.76611328 C-184.24389321 330.18056932 -187.37159089 325.59004621 -190.5 321 C-191.74996464 319.16664256 -192.99996465 317.33330923 -194.25 315.5 C-196.75 311.83333333 -199.25 308.16666667 -201.75 304.5 C-202.36858887 303.5927417 -202.98717773 302.6854834 -203.62451172 301.75073242 C-204.87615952 299.91497145 -206.12778708 298.07919668 -207.37939453 296.2434082 C-210.47901847 291.69710508 -213.57897869 287.15103204 -216.6796875 282.60546875 C-230.48377154 262.36752572 -244.25474463 242.10712848 -258.00668335 221.83372498 C-258.40666534 221.24406448 -258.80664734 220.65440399 -259.21875 220.046875 C-259.61897369 219.45685196 -260.01919739 218.86682892 -260.43154907 218.25892639 C-263.08793127 214.34323298 -265.74654145 210.42906021 -268.40625 206.515625 C-278.3620076 191.86307301 -288.28152609 177.1862563 -298.1875 162.5 C-298.8150116 161.56985077 -299.44252319 160.63970154 -300.08905029 159.68136597 C-303.03773047 155.31016343 -305.98469428 150.93783064 -308.92724609 146.5625 C-310.82281631 143.74417774 -312.7256755 140.93118597 -314.63916016 138.125 C-315.37312012 137.0421875 -316.10708008 135.959375 -316.86328125 134.84375 C-317.48114502 133.93818359 -318.09900879 133.03261719 -318.7355957 132.09960938 C-320 130 -320 130 -320 128 C-315.95990826 129.27301776 -312.21024926 130.76944587 -308.41015625 132.63671875 C-306.86231445 133.37825195 -306.86231445 133.37825195 -305.28320312 134.13476562 C-303.13462469 135.17061757 -300.99134641 136.21753522 -298.85351562 137.27539062 C-297.82033203 137.76587891 -296.78714844 138.25636719 -295.72265625 138.76171875 C-294.79203369 139.21506592 -293.86141113 139.66841309 -292.90258789 140.13549805 C-285.8680046 142.23066664 -279.72752984 138.81255264 -273.4453125 135.88671875 C-272.54432831 135.47589554 -271.64334412 135.06507233 -270.71505737 134.64179993 C-267.8477472 133.33214686 -264.98633922 132.01013995 -262.125 130.6875 C-260.2100204 129.80970652 -258.29465914 128.93274514 -256.37890625 128.05664062 C-252.83888481 126.43708914 -249.30151327 124.81198407 -245.76611328 123.18237305 C-244.9680426 122.82130463 -244.16997192 122.46023621 -243.34771729 122.08822632 C-241.79578924 121.36886843 -240.2587765 120.61631831 -238.73968506 119.82998657 C-229.89832199 115.41826482 -221.26687259 116.91024372 -211.75 118.09375 C-210.81124023 118.20473022 -209.87248047 118.31571045 -208.90527344 118.43005371 C-204.93710053 118.89935251 -200.97060005 119.38215498 -197.00390625 119.86376953 C-194.08648078 120.21598828 -191.16828653 120.56125003 -188.25 120.90625 C-187.37053711 121.0156189 -186.49107422 121.12498779 -185.58496094 121.2376709 C-175.28560004 122.78733688 -175.28560004 122.78733688 -165.40625 120.78515625 C-164.7771875 120.21667969 -164.148125 119.64820313 -163.5 119.0625 C-162.76136719 118.41796875 -162.02273438 117.7734375 -161.26171875 117.109375 C-160.51535156 116.41328125 -159.76898437 115.7171875 -159 115 C-158.24332031 114.32453125 -157.48664063 113.6490625 -156.70703125 112.953125 C-155.06024764 111.48095956 -153.42133004 109.99996269 -151.7890625 108.51171875 C-148.04542168 105.14034474 -144.23202964 101.85500794 -140.38623047 98.60083008 C-137.42759612 96.09641762 -134.51168412 93.56858265 -131.671875 90.9296875 C-130.85553589 90.19081299 -130.85553589 90.19081299 -130.02270508 89.43701172 C-128.54351925 88.096108 -127.08158853 86.73623785 -125.62109375 85.375 C-115.27009031 77.655139 -98.26896837 76.52396034 -85.9375 73.875 C-81.88275624 73.00352323 -77.82963691 72.12498026 -73.77734375 71.2421875 C-72.39300392 70.94838699 -72.39300392 70.94838699 -70.98069763 70.64865112 C-70.12202591 70.46150543 -69.26335419 70.27435974 -68.37866211 70.08154297 C-67.25167152 69.83982864 -67.25167152 69.83982864 -66.10191345 69.5932312 C-62.17631178 68.48529339 -59.76545229 67.15607014 -57.51171875 63.74609375 C-57.06014404 63.06861084 -56.60856934 62.39112793 -56.14331055 61.69311523 C-55.42268433 60.57658569 -55.42268433 60.57658569 -54.6875 59.4375 C-54.17550049 58.65898682 -53.66350098 57.88047363 -53.13598633 57.07836914 C-47.96316218 49.12344407 -43.11885201 40.96594086 -38.34057617 32.76928711 C-30.87241107 20.07959357 -23.50687778 11.40573389 -10.75 4.125 C-10.03980713 3.71894531 -9.32961426 3.31289063 -8.59790039 2.89453125 C-3.37518625 0 -3.37518625 0 0 0 Z " fill="#8750f7" transform="translate(701,605)"/>
<path d="M0 0 C5.11330007 0.55469725 8.97025264 2.99992482 13.3125 5.5625 C14.03373047 5.96791016 14.75496094 6.37332031 15.49804688 6.79101562 C26.50708389 13.23846062 32.35011699 22.26453946 38.4375 33.125 C39.8472448 35.6099959 41.26388225 38.09099873 42.68359375 40.5703125 C43.20848892 41.4879538 43.20848892 41.4879538 43.74398804 42.4241333 C51.52220835 57.94738948 51.52220835 57.94738948 63.52587891 69.13671875 C64.41710449 69.31847656 65.30833008 69.50023437 66.2265625 69.6875 C67.24564697 69.90809082 68.26473145 70.12868164 69.31469727 70.35595703 C70.40709717 70.56849121 71.49949707 70.78102539 72.625 71 C73.7605835 71.24218262 74.89616699 71.48436523 76.06616211 71.73388672 C79.70696153 72.50880092 83.35313499 73.25421395 87 74 C90.68078412 74.77515659 94.35887817 75.56087032 98.03466797 76.359375 C100.32949727 76.85740854 102.62663432 77.34496331 104.92626953 77.8203125 C113.61523421 79.68554535 121.3808288 81.84354984 127.875 88.1875 C131.23485889 91.36644341 134.63109927 94.36867581 138.25 97.25 C142.72078788 100.85445416 146.89688775 104.68013824 151.0625 108.625 C155.01673345 112.32220828 158.96554312 115.99658596 163.25 119.3125 C164.27867187 120.11107422 164.27867187 120.11107422 165.328125 120.92578125 C175.22827123 124.9061032 189.61734235 120.77967443 199.93676758 119.48266602 C202.47317147 119.16665582 205.01136922 118.87273035 207.55078125 118.58203125 C208.32480789 118.47905228 209.09883453 118.3760733 209.89631653 118.26997375 C214.60879149 117.75021093 217.2538599 118.03450519 221 121 C230.86988251 130.68435841 238.08450628 143.19922217 245.72705078 154.61279297 C248.73096393 159.09531203 251.76525616 163.55700444 254.80126953 168.01782227 C256.2519385 170.15033465 257.69959772 172.28489797 259.14404297 174.42163086 C262.07926608 178.75707698 265.019279 183.07428905 268.13671875 187.28125 C268.57822266 187.88420898 269.01972656 188.48716797 269.47460938 189.10839844 C270.5760531 190.59916083 271.69898279 192.07398844 272.82421875 193.546875 C274 196 274 196 273.24902344 198.38354492 C272.05750322 200.87954222 270.7649542 203.04548756 269.19140625 205.31640625 C268.61922363 206.14825439 268.04704102 206.98010254 267.45751953 207.8371582 C266.83216309 208.736521 266.20680664 209.63588379 265.5625 210.5625 C264.19613877 212.5465474 262.83027725 214.53093901 261.46484375 216.515625 C260.37598877 218.0944043 260.37598877 218.0944043 259.26513672 219.70507812 C255.76172372 224.8012262 252.29336547 229.92096993 248.82510376 235.04107666 C246.80661731 238.02048071 244.78606171 240.99848079 242.765625 243.9765625 C242.3660408 244.56561371 241.9664566 245.15466492 241.55476379 245.76156616 C235.41467069 254.81216868 229.26185253 263.85412217 223.11035156 272.89697266 C220.94521895 276.08054919 218.7810777 279.26479763 216.6171875 282.44921875 C209.69649559 292.63287503 202.76922263 302.81180019 195.81152344 312.97021484 C191.69945664 318.97454885 187.59825586 324.9862323 183.5 331 C179.82748145 336.38805817 176.15432351 341.77567459 172.4765625 347.16015625 C171.91646484 347.9802417 171.35636719 348.80032715 170.77929688 349.64526367 C169.69181153 351.23428262 168.60203293 352.82173499 167.50976562 354.4074707 C165.08195361 357.93363276 162.68260459 361.4691413 160.3671875 365.0703125 C159.76173096 365.99444946 159.76173096 365.99444946 159.14404297 366.93725586 C158.08425126 368.55860599 157.04137035 370.1909758 156 371.82421875 C154 374 154 374 151.546875 374.6015625 C148.08588983 373.78409054 146.69405459 372.25535474 144.25 369.6875 C142.94482422 368.31658203 142.94482422 368.31658203 141.61328125 366.91796875 C138.35486266 363.27964485 135.2635196 359.53361328 132.21484375 355.71875 C130.05294156 353.06498647 127.80755136 350.52750859 125.5 348 C121.65808061 343.77986056 118.03884779 339.41972816 114.44921875 334.984375 C111.681893 331.61238637 108.8485306 328.30334554 106 325 C101.7001015 320.01074306 97.49514122 314.95778266 93.34375 309.84375 C90.10036237 305.90843967 86.76853203 302.05180698 83.43920898 298.18920898 C80.42754991 294.68764698 77.4694105 291.15213443 74.5625 287.5625 C69.94612721 281.87952845 65.14813271 276.36393732 60.33984375 270.84375 C57.63249034 267.73434556 54.94575659 264.60826793 52.27368164 261.46850586 C51.26013196 260.28378468 50.2397828 259.10484606 49.21264648 257.93188477 C47.00947796 255.41114888 44.97425461 252.96196225 43.09375 250.18359375 C38.27623556 243.49827181 32.75267035 241.54098846 25.1640625 239.1796875 C24.10234833 238.83796509 23.04063416 238.49624268 21.94674683 238.14416504 C18.63533629 237.0824266 15.31837162 236.03975233 12 235 C10.021306 234.37246973 8.04278387 233.74439717 6.06445312 233.11572266 C1.13158153 231.55391901 -3.80691855 230.01073822 -8.74749756 228.47351074 C-14.27110111 226.7541556 -19.79185706 225.02570883 -25.3125 223.296875 C-26.4447702 222.94232239 -27.57704041 222.58776978 -28.74362183 222.22247314 C-61.23258128 212.03712008 -93.62543384 201.54253364 -126 191 C-124.82618873 187.17791419 -123.53515059 183.91357154 -121.375 180.55078125 C-120.57642578 179.29962524 -120.57642578 179.29962524 -119.76171875 178.02319336 C-118.88966797 176.68140015 -118.88966797 176.68140015 -118 175.3125 C-117.38769531 174.36060791 -116.77539062 173.40871582 -116.14453125 172.42797852 C-109.28191886 161.80445591 -102.2506273 151.29175277 -95.20729065 140.7875824 C-93.00473561 137.50242529 -90.80878071 134.21304421 -88.62109375 130.91796875 C-76.85908563 113.20370994 -64.91842195 95.60918728 -53 78 C-52.51690369 77.28620178 -52.03380737 76.57240356 -51.53607178 75.8369751 C-45.44530672 66.83798084 -39.35044122 57.8417711 -33.25256348 48.84759521 C-31.98822775 46.98263533 -30.72407451 45.11755187 -29.45996094 43.25244141 C-19.67262646 28.8125578 -9.8676638 14.38517595 0 0 Z " fill="#8750f7" transform="translate(126,605)"/>
<path d="M0 0 C0.66 0.33 1.32 0.66 2 1 C-0.97 3.97 -3.94 6.94 -7 10 C-7 5.69032084 -4.83274712 4.10253255 -2 1 C-1.34 0.67 -0.68 0.34 0 0 Z " fill="#8750f7" transform="translate(202,68)"/>
</svg>
