<?xml version="1.0" encoding="UTF-8"?>
<svg version="1.1" xmlns="http://www.w3.org/2000/svg" width="512" height="512" >
<path d="M0 0 C1.42590454 0.00738693 1.42590454 0.00738693 2.88061523 0.0149231 C28.84311272 0.1983312 52.41527502 5.43808746 72.8125 22.5625 C73.65941406 23.27148438 74.50632812 23.98046875 75.37890625 24.7109375 C85.48272625 33.50357475 93.23518297 42.88497527 99.8125 54.5625 C100.3590625 55.51898438 100.905625 56.47546875 101.46875 57.4609375 C104.47605035 63.06126723 106.7036878 68.75178843 108.5625 74.8125 C108.76125732 75.4425293 108.96001465 76.07255859 109.16479492 76.72167969 C113.08681445 90.3655333 113.10921711 104.64113139 113.0871582 118.70922852 C113.09151703 120.57213035 113.09670402 122.4350304 113.10264587 124.29792786 C113.11591023 129.30557574 113.11662954 134.3131476 113.11408257 139.3208096 C113.1130059 143.51370748 113.11791307 147.70659041 113.122688 151.89948505 C113.13373608 161.78692418 113.13424487 171.67432528 113.12817383 181.56176758 C113.12211501 191.7491955 113.13450407 201.93648597 113.1557439 212.12389046 C113.1733565 220.89538404 113.17936245 229.66683381 113.17610615 238.43834442 C113.17429523 243.66700395 113.17691208 248.89556502 113.19082069 254.12420845 C113.20339156 259.03193393 113.20146198 263.9394439 113.18840981 268.84716606 C113.18604422 270.64546659 113.18877808 272.44378229 113.19703293 274.24206543 C113.20750196 276.70004319 113.19939935 279.15729763 113.1867218 281.61524963 C113.19409609 282.323226 113.20147037 283.03120237 113.20906812 283.76063257 C113.14079922 290.06897001 111.52394271 294.53579153 107.4375 299.375 C102.85341442 303.19507131 99.02134676 303.8147286 93.12963867 303.85302734 C92.47851608 303.85974457 91.82739349 303.86646179 91.15653992 303.87338257 C89.01443749 303.89230351 86.87264944 303.89628389 84.73046875 303.8984375 C83.23220189 303.90487025 81.73393627 303.91159896 80.235672 303.91860962 C77.0977589 303.93056811 73.95995576 303.93429199 70.82202148 303.93310547 C66.8173168 303.93290252 62.81332366 303.9601854 58.80878735 303.99464989 C55.71422643 304.01698015 52.619835 304.02094113 49.5252018 304.01988602 C48.04972193 304.02223351 46.57423678 304.03100871 45.0988369 304.04655075 C37.14464219 304.12248798 30.58922112 304.16412481 23.8125 299.5625 C19.63425121 294.31290537 18.6880006 290.50797057 18.68119812 283.9112854 C18.67802455 282.89214383 18.67802455 282.89214383 18.67478687 281.85241354 C18.66878443 279.57037547 18.66978722 277.28839267 18.6706543 275.00634766 C18.66762276 273.37184556 18.66410132 271.73734431 18.66012573 270.10284424 C18.65223263 266.57847627 18.64709011 263.05411844 18.64383507 259.52974319 C18.63792112 253.94748089 18.62137454 248.36528224 18.60249329 242.78305054 C18.5961555 240.87060742 18.58982988 238.95816425 18.58351612 237.04572105 C18.58035031 236.08777791 18.5771845 235.12983476 18.57392275 234.14286304 C18.53189286 221.1471741 18.49890469 208.15151404 18.48657227 195.15576172 C18.47816924 186.39082129 18.45559176 177.62603781 18.4172166 168.86117589 C18.39752338 164.22679067 18.38502869 159.5926397 18.39005089 154.95820999 C18.39472674 150.58978357 18.38073311 146.22179956 18.35303879 141.85346222 C18.3461748 140.25927813 18.34594817 138.66504782 18.35323906 137.07086563 C18.42099961 120.57469727 14.67458935 105.69418229 2.8125 93.5625 C-9.88488538 83.09478488 -23.03348707 79.66232704 -39.1875 80.5625 C-52.43657614 82.70053389 -63.60860508 89.37417585 -72.0078125 99.828125 C-81.25454992 113.11740592 -82.48744091 126.10751765 -82.44287109 141.93261719 C-82.44562551 143.56965814 -82.44930813 145.20669775 -82.45384216 146.84373474 C-82.46191339 150.35055095 -82.46413304 153.85730355 -82.46189499 157.36412811 C-82.45904868 162.91144467 -82.4734608 168.45863527 -82.49087524 174.00592041 C-82.53778329 189.77362205 -82.56185442 205.54131364 -82.56835938 221.30908203 C-82.57210953 230.0315129 -82.59012836 238.75379975 -82.62345374 247.47616887 C-82.64365756 252.98911212 -82.64604404 258.50168375 -82.63517356 264.01464891 C-82.63256631 267.44243907 -82.64656975 270.87001265 -82.66525459 274.29774666 C-82.67057544 275.88520837 -82.66908157 277.47270998 -82.66021919 279.06015587 C-82.64908277 281.230054 -82.66254407 283.39848926 -82.68197632 285.56829834 C-82.68306585 286.78129482 -82.68415539 287.99429131 -82.68527794 289.24404526 C-83.46261985 294.38036672 -85.95914549 297.45398495 -89.75 300.875 C-93.8304431 303.69992214 -97.06541705 303.70067536 -101.91870117 303.73950195 C-102.59879242 303.74607315 -103.27888367 303.75264435 -103.97958374 303.75941467 C-106.22987994 303.77912007 -108.48010938 303.79080597 -110.73046875 303.80078125 C-111.88633201 303.80689454 -111.88633201 303.80689454 -113.06554604 303.81313133 C-117.14664058 303.83398342 -121.22770162 303.84828709 -125.30883789 303.85766602 C-129.51084336 303.86871006 -133.7123163 303.9030887 -137.91413403 303.94283772 C-141.15622395 303.96906923 -144.39818844 303.97736376 -147.64037514 303.98094749 C-149.18843482 303.98579905 -150.73648943 303.99737205 -152.28444481 304.01598549 C-167.48056263 304.18730859 -167.48056263 304.18730859 -174.1875 299.5625 C-177.72482333 295.11817069 -179.30947753 291.59166266 -179.32172108 285.95216084 C-179.32617892 285.00015429 -179.33063676 284.04814774 -179.33522969 283.06729251 C-179.33504533 282.01925911 -179.33486097 280.97122571 -179.33467102 279.89143372 C-179.33834771 278.77970517 -179.3420244 277.66797663 -179.3458125 276.52255934 C-179.35687164 272.77781165 -179.36069696 269.03309168 -179.36450195 265.28833008 C-179.3707649 262.61124505 -179.37739859 259.93416302 -179.38441467 257.25708008 C-179.40417784 249.20928325 -179.41424522 241.16148517 -179.42314246 233.11367014 C-179.42752571 229.32367545 -179.43289244 225.53368217 -179.43813133 221.74368858 C-179.45514366 209.14454978 -179.46963771 196.54541184 -179.47688007 183.94626331 C-179.47878996 180.67665925 -179.4807103 177.4070552 -179.48266602 174.13745117 C-179.48314976 173.32480833 -179.4836335 172.51216548 -179.4841319 171.6748971 C-179.49243174 158.51136769 -179.51776785 145.34792918 -179.55024669 132.18443946 C-179.58332112 118.66935571 -179.60132919 105.15431815 -179.60452431 91.63919371 C-179.60668909 84.05111569 -179.61543285 76.46317019 -179.64098549 68.87513161 C-179.66269779 62.41258309 -179.67074037 55.95019928 -179.66101871 49.48761842 C-179.6564754 46.19135025 -179.66054584 42.89549268 -179.67778015 39.59925652 C-179.69543724 36.02204521 -179.6884222 32.445696 -179.67524719 28.8684845 C-179.68621644 27.8316047 -179.69718568 26.79472491 -179.70848733 25.72642452 C-179.64700173 18.81148131 -178.61241187 12.98275778 -173.56036931 7.93758041 C-167.32040399 2.79531455 -158.78008934 3.86004634 -151.15625 3.93359375 C-149.59500971 3.93276372 -148.03376953 3.93029928 -146.47253418 3.92628479 C-143.21107469 3.92343658 -139.95030564 3.93803091 -136.68896484 3.96557617 C-132.52618682 3.99965811 -128.36464221 3.99363187 -124.20180511 3.9749136 C-120.98107782 3.96430207 -117.76063331 3.97331881 -114.53993225 3.98829842 C-113.00587303 3.99345032 -111.4717839 3.99303509 -109.93772888 3.98675346 C-94.94195023 3.94838974 -94.94195023 3.94838974 -88.1875 8.5625 C-84.13799958 13.54650051 -83.12617362 17.49794815 -82.87109375 23.765625 C-82.82919922 24.7453125 -82.78730469 25.725 -82.74414062 26.734375 C-82.70482422 27.75015625 -82.66550781 28.7659375 -82.625 29.8125 C-82.58181641 30.84375 -82.53863281 31.875 -82.49414062 32.9375 C-82.38824318 35.4790387 -82.28616557 38.02067196 -82.1875 40.5625 C-81.40246094 39.63308594 -80.61742187 38.70367187 -79.80859375 37.74609375 C-69.49208607 25.57971818 -59.85928339 15.85829494 -45.5625 8.375 C-44.67800171 7.89365601 -44.67800171 7.89365601 -43.77563477 7.40258789 C-29.91211249 0.4194403 -15.19932677 -0.14849042 0 0 Z " fill="#8750f7" transform="translate(367.1875,169.4375)"/>
<path d="M0 0 C0.68009125 -0.0065712 1.3601825 -0.0131424 2.06088257 -0.01991272 C4.31117877 -0.03961812 6.5614082 -0.05130401 8.81176758 -0.0612793 C9.96763083 -0.06739259 9.96763083 -0.06739259 11.14684486 -0.07362938 C15.22793941 -0.09448147 19.30900045 -0.10878514 23.39013672 -0.11816406 C27.59214219 -0.12920811 31.79361513 -0.16358674 35.99543285 -0.20333576 C39.23752278 -0.22956727 42.47948727 -0.2378618 45.72167397 -0.24144554 C47.26973364 -0.2462971 48.81778826 -0.25787009 50.36574364 -0.27648354 C65.54993268 -0.44767215 65.54993268 -0.44767215 72.26879883 4.17700195 C76.21544146 9.03440827 77.39111274 12.85668471 77.40022659 18.9884758 C77.40406774 19.95989037 77.40790888 20.93130495 77.41186643 21.93215632 C77.41099994 22.99673163 77.41013346 24.06130693 77.40924072 25.15814209 C77.41221184 26.29114282 77.41518297 27.42414355 77.41824412 28.59147763 C77.42694169 32.40221971 77.42844027 36.21293041 77.42993164 40.02368164 C77.43402091 42.75017482 77.43956296 45.47666469 77.44497681 48.20315552 C77.45855566 55.62057298 77.46458416 63.03798504 77.46898746 70.45541286 C77.47175066 75.08747662 77.47598815 79.7195383 77.48049164 84.35160065 C77.49268375 97.17810815 77.50298316 110.00461399 77.50636673 122.83112717 C77.50669608 124.06239159 77.50669608 124.06239159 77.50703208 125.31853004 C77.5073595 126.55272924 77.5073595 126.55272924 77.50769353 127.81186175 C77.50813699 129.47914807 77.50858356 131.14643439 77.5090332 132.8137207 C77.50925463 133.64075112 77.50947606 134.46778154 77.5097042 135.31987348 C77.51365183 148.71934914 77.53110504 162.1187704 77.55439273 175.51822504 C77.57811248 189.27742347 77.59056887 203.0365946 77.59173465 216.7958138 C77.59265106 224.52022467 77.59839485 232.24456466 77.61655426 239.96895599 C77.63196368 246.54674528 77.63707077 253.12444178 77.62881616 259.70224568 C77.62491255 263.05721814 77.62746073 266.41185207 77.6398735 269.76682663 C77.65255307 273.40735453 77.64673731 277.04740283 77.6362915 280.68792725 C77.64837611 282.27140587 77.64837611 282.27140587 77.66070485 283.88687396 C77.61808943 290.23630584 77.40256917 296.81767284 72.81686521 301.73344111 C68.0799199 305.79537222 65.39238872 306.3078564 59.25219727 306.35400391 C58.53002518 306.3605751 57.80785309 306.3671463 57.063797 306.37391663 C54.66858825 306.39366176 52.27344229 306.40531594 49.87817383 306.4152832 C49.0600547 306.41935873 48.24193558 306.42343426 47.39902496 306.42763329 C43.06737011 306.44850096 38.73574699 306.46279865 34.40405273 306.47216797 C29.93391671 306.48322337 25.46427972 306.51761087 20.99431992 306.55733967 C17.55414925 306.58351337 14.11409723 306.59186054 10.67383575 306.59544945 C9.02643724 306.60031486 7.37904401 306.61192766 5.73174286 306.63048744 C3.42175565 306.65489203 1.11305575 306.65391193 -1.19702148 306.64697266 C-2.51003235 306.6528389 -3.82304321 306.65870514 -5.17584229 306.66474915 C-10.51278366 305.93259291 -13.35812443 303.7327449 -16.87357044 299.74962425 C-19.8203292 295.13685143 -19.27915313 289.96475387 -19.23240662 284.66941833 C-19.23794101 283.50400719 -19.24347541 282.33859605 -19.24917752 281.13786942 C-19.26042298 277.91141524 -19.25376209 274.68557506 -19.2394408 271.45915139 C-19.22832481 267.97648683 -19.2402756 264.49389051 -19.24928284 261.01123047 C-19.26321266 254.19232775 -19.25566131 247.37361028 -19.24060725 240.5547164 C-19.2237447 232.61436398 -19.22695768 224.67405768 -19.23070133 216.73369289 C-19.23657934 202.56705339 -19.22241017 188.40050279 -19.19775391 174.23388672 C-19.17382876 160.48580595 -19.16675148 146.73784394 -19.17724609 132.98974609 C-19.18865348 118.01908375 -19.19058795 103.04847632 -19.176148 88.07781464 C-19.17462215 86.48175276 -19.1731018 84.88569087 -19.17158699 83.28962898 C-19.17082918 82.50433104 -19.17007136 81.7190331 -19.16929058 80.90993826 C-19.16454672 75.37431677 -19.16639989 69.8387198 -19.17065239 64.30309868 C-19.17557725 57.55836616 -19.16960265 50.81374595 -19.14975809 44.06903916 C-19.13988163 40.62739621 -19.13478471 37.18592433 -19.1426506 33.74427223 C-19.14858302 30.01519769 -19.13613672 26.28663067 -19.11888123 22.55760193 C-19.12489127 21.46733859 -19.13090132 20.37707525 -19.13709348 19.25377363 C-19.08496541 13.0834538 -18.67570554 9.21352209 -14.23120117 4.63012695 C-9.29997665 0.67487395 -6.22836054 0.04982729 0 0 Z " fill="#8750f7" transform="translate(55.731201171875,173.822998046875)"/>
<path d="M0 0 C0.85464844 0.4125 1.70929688 0.825 2.58984375 1.25 C15.69493152 8.35784421 23.70741288 19.17782505 28.203125 33.0703125 C32.17260375 47.66398438 29.9205041 61.80700333 22.83984375 75.05078125 C15.3391261 87.07422462 4.6391252 95.05309415 -8.9375 99 C-24.87753384 102.27302028 -39.20109742 99.32464574 -53 91 C-65.12032595 82.23491203 -72.14537978 69.95599724 -74.6328125 55.26171875 C-76.05516881 40.6901323 -72.78928247 27.06538292 -63.9609375 15.27734375 C-48.43803278 -2.90584676 -22.30456535 -10.89688689 0 0 Z " fill="#8750f7"  transform="translate(107,36)"/>
</svg>
