<?xml version="1.0" encoding="UTF-8"?>
<svg version="1.1" xmlns="http://www.w3.org/2000/svg" width="512" height="512">
<path d="M0 0 C1.50587455 0.2686344 3.01189098 0.53647447 4.51803589 0.80358887 C9.41690311 1.67671376 14.31154104 2.57232862 19.20605469 3.46948242 C20.90100819 3.7789039 22.59598259 4.08821091 24.29097748 4.39740562 C32.24873285 5.85058548 40.20443097 7.31446211 48.15784192 8.79123288 C57.30800857 10.48978407 66.46403625 12.15034835 75.62680745 13.77949697 C82.73469478 15.04586024 89.83556426 16.3475188 96.93219066 17.67552203 C101.16069499 18.46591283 105.39065527 19.24105036 109.62870026 19.97873878 C113.61297892 20.67312753 117.58671114 21.41118455 121.55676651 22.18262482 C123.00821949 22.45694083 124.46270091 22.71579298 125.91997147 22.957304 C133.62017256 24.2431649 138.61329615 25.51443118 143.36195374 31.96903992 C144.4841243 33.79668583 145.57527033 35.64390504 146.62792969 37.51245117 C147.65313242 39.05531088 148.68780406 40.59198831 149.73803711 42.11791992 C150.73912754 43.64353679 151.73750061 45.1709396 152.73339844 46.69995117 C153.87789408 48.44541723 155.02242699 50.19085885 156.16699219 51.9362793 C156.7602832 52.84321533 157.35357422 53.75015137 157.96484375 54.68457031 C167.98124153 69.9906304 178.08870081 85.23103824 188.3442688 100.37786865 C198.59706292 115.52190883 208.81017949 130.69229817 218.91723633 145.93408203 C220.21502509 147.88892584 221.51560534 149.84191954 222.8190918 151.79296875 C224.62256108 154.49385145 226.41562463 157.20135068 228.20605469 159.91088867 C229.01160797 161.11091019 229.01160797 161.11091019 229.83343506 162.33517456 C234.53253721 169.493001 234.53253721 169.493001 234.62792969 173.51245117 C232.85449219 176.02026367 232.85449219 176.02026367 230.25292969 178.63745117 C229.31306034 179.61042843 228.3756106 180.585748 227.44042969 181.56323242 C226.96476562 182.0551709 226.48910156 182.54710937 225.99902344 183.05395508 C223.96512467 185.21750765 222.11233829 187.51094451 220.25292969 189.82495117 C216.78422668 194.120995 213.23366838 198.3318107 209.62792969 202.51245117 C206.07321424 206.63696823 202.56000183 210.78453622 199.12792969 215.01245117 C195.19414399 219.85841906 191.14345209 224.59343645 187.06933594 229.32104492 C184.03834685 232.8456302 181.05800387 236.40293949 178.12792969 240.01245117 C173.74080066 245.41321289 169.21569557 250.68712817 164.67871094 255.96166992 C158.43365648 263.2227612 152.23161819 270.51798546 146.19042969 277.94995117 C141.77879914 283.36815696 137.23469326 288.66515967 132.67871094 293.96166992 C126.43365648 301.2227612 120.23161819 308.51798546 114.19042969 315.94995117 C109.77879914 321.36815696 105.23469326 326.66515967 100.67871094 331.96166992 C94.43365648 339.2227612 88.23161819 346.51798546 82.19042969 353.94995117 C77.77879914 359.36815696 73.23469326 364.66515967 68.67871094 369.96166992 C62.43365648 377.2227612 56.23161819 384.51798546 50.19042969 391.94995117 C45.77879914 397.36815696 41.23469326 402.66515967 36.67871094 407.96166992 C30.43365648 415.2227612 24.23161819 422.51798546 18.19042969 429.94995117 C13.77879914 435.36815696 9.23469326 440.66515967 4.67871094 445.96166992 C1.75293499 449.3634539 -1.15849649 452.77708308 -4.05957031 456.19995117 C-4.50937256 456.72935303 -4.9591748 457.25875488 -5.42260742 457.80419922 C-7.62600138 460.40740742 -9.79758619 463.02934093 -11.91894531 465.69995117 C-12.70785156 466.68995117 -13.49675781 467.67995117 -14.30957031 468.69995117 C-15.34404297 470.0205957 -15.34404297 470.0205957 -16.39941406 471.36791992 C-18.31597111 473.45146412 -19.76905848 474.47008178 -22.37207031 475.51245117 C-28.11461892 469.31433504 -33.6484911 463.0375908 -38.95800781 456.46166992 C-41.71068905 453.09876647 -44.533888 449.80315548 -47.37207031 446.51245117 C-51.67202162 441.52324098 -55.87693063 436.47023194 -60.02832031 431.35620117 C-62.7650908 428.03558631 -65.56309982 424.77198335 -68.37207031 421.51245117 C-71.92660192 417.38776913 -75.43999174 413.24037405 -78.87207031 409.01245117 C-83.25919934 403.61168945 -87.78430443 398.33777417 -92.32128906 393.06323242 C-98.56634352 385.80214114 -104.76838181 378.50691688 -110.80957031 371.07495117 C-115.22120086 365.65674538 -119.76530674 360.35974267 -124.32128906 355.06323242 C-130.56634352 347.80214114 -136.76838181 340.50691688 -142.80957031 333.07495117 C-147.22120086 327.65674538 -151.76530674 322.35974267 -156.32128906 317.06323242 C-162.56634352 309.80214114 -168.76838181 302.50691688 -174.80957031 295.07495117 C-179.22120086 289.65674538 -183.76530674 284.35974267 -188.32128906 279.06323242 C-194.56634352 271.80214114 -200.76838181 264.50691688 -206.80957031 257.07495117 C-211.22120086 251.65674538 -215.76530674 246.35974267 -220.32128906 241.06323242 C-226.56634352 233.80214114 -232.76838181 226.50691688 -238.80957031 219.07495117 C-243.22120086 213.65674538 -247.76530674 208.35974267 -252.32128906 203.06323242 C-259.52589236 194.68647886 -266.64192776 186.24425472 -273.59472656 177.65698242 C-275.3446274 175.47774886 -275.3446274 175.47774886 -277.37207031 173.51245117 C-277.28096446 168.24924164 -273.77328984 164.1164133 -270.95019531 159.91088867 C-270.10572845 158.63291916 -270.10572845 158.63291916 -269.24420166 157.32913208 C-267.3780441 154.50991818 -265.50023624 151.69867652 -263.62207031 148.88745117 C-262.30447925 146.90277939 -260.98743027 144.91774763 -259.67089844 142.93237305 C-249.62986517 127.81164041 -239.47641881 112.7664322 -229.30004883 97.73657227 C-219.03275119 82.56002688 -208.94198773 67.26997482 -198.91113281 51.9362793 C-198.04111382 50.60953186 -198.04111382 50.60953186 -197.15351868 49.25598145 C-196.08652188 47.6287086 -195.02165853 46.00003338 -193.9596405 44.36950684 C-193.00167677 42.90961313 -192.02888057 41.45930375 -191.0389061 40.02092457 C-189.33063873 37.51665604 -189.33063873 37.51665604 -187.84057713 34.79394054 C-184.24452067 28.93715008 -181.37413441 25.90252362 -174.64434814 24.08869934 C-171.93341392 23.54389551 -169.24268961 23.05319069 -166.51757812 22.6015625 C-165.01790324 22.31813283 -163.51898301 22.03068544 -162.02078247 21.73956299 C-157.97370685 20.96513895 -153.91840894 20.24776558 -149.85901737 19.54117417 C-145.59596617 18.78963371 -141.34247313 17.98730986 -137.08758545 17.19108582 C-129.94096848 15.86108676 -122.78889891 14.56501243 -115.63183594 13.29248047 C-106.4737139 11.66404769 -97.3258997 9.98401082 -88.18046951 8.2859087 C-80.28452754 6.81981696 -72.38501804 5.37331463 -64.48449612 3.93213058 C-62.79702841 3.62407566 -61.10967098 3.31541612 -59.42242527 3.00614762 C-54.60677983 2.12364546 -49.78945723 1.25180143 -44.96883774 0.39686584 C-43.51547476 0.13759903 -42.06272026 -0.12510875 -40.61068344 -0.39170265 C-26.43038991 -2.98961993 -14.12959968 -2.59419393 0 0 Z " fill="#FFC927" transform="translate(277.3720703125,19.487548828125)"/>
<path d="M0 0 C7.8053509 0.61343955 15.40419153 1.89544318 23.09033203 3.36083984 C24.99980873 3.71958946 24.99980873 3.71958946 26.94786072 4.08558655 C30.41383348 4.73686637 33.87880072 5.39335552 37.34360361 6.05082655 C40.99369522 6.74250772 44.64470938 7.42928524 48.29562378 8.11660767 C55.21486415 9.41998299 62.13328145 10.7276737 69.05140579 12.03695834 C76.86644583 13.51578136 84.68236783 14.98991536 92.4983809 16.46358562 C101.36218772 18.13484784 110.22597419 19.80621941 119.08900565 21.48158944 C120.46238088 21.74116466 121.83578215 22.00060221 123.20921069 22.25989521 C126.44140879 22.87030864 129.67302413 23.48355446 132.90384579 24.10121727 C138.02342649 25.0776827 143.13869357 26.04136702 148.28526306 26.86529541 C149.41581399 27.05266234 149.41581399 27.05266234 150.56920433 27.24381447 C152.42973285 27.54739074 154.2935244 27.83080293 156.15760803 28.11172485 C161.30714219 29.72100438 163.39328072 33.59758391 165.9175415 38.12695312 C167.62173375 41.0758255 169.54417004 43.87348452 171.44076538 46.7010498 C173.15706781 49.26456988 174.85070222 51.84182848 176.5390625 54.42382812 C187.15225419 70.64771445 197.84692807 86.81197939 208.71633911 102.86541748 C218.96913323 118.00945766 229.18224981 133.179847 239.28930664 148.42163086 C240.5870954 150.37647467 241.88767566 152.32946837 243.19116211 154.28051758 C244.9946314 156.98140028 246.78769494 159.68889951 248.578125 162.3984375 C249.38367828 163.59845901 249.38367828 163.59845901 250.20550537 164.82272339 C254.90460752 171.98054982 254.90460752 171.98054982 255 176 C253.2265625 178.5078125 253.2265625 178.5078125 250.625 181.125 C249.68513065 182.09797726 248.74768091 183.07329683 247.8125 184.05078125 C247.33683594 184.54271973 246.86117187 185.0346582 246.37109375 185.54150391 C244.33719498 187.70505648 242.48440861 189.99849333 240.625 192.3125 C237.15629699 196.60854383 233.60573869 200.81935953 230 205 C226.44528455 209.12451706 222.93207214 213.27208505 219.5 217.5 C215.5662143 222.34596789 211.51552241 227.08098528 207.44140625 231.80859375 C204.41041716 235.33317903 201.43007419 238.89048832 198.5 242.5 C194.11287098 247.90076172 189.58776588 253.174677 185.05078125 258.44921875 C178.80572679 265.71031003 172.6036885 273.00553429 166.5625 280.4375 C162.15086945 285.85570579 157.60676358 291.1527085 153.05078125 296.44921875 C146.80572679 303.71031003 140.6036885 311.00553429 134.5625 318.4375 C130.15086945 323.85570579 125.60676358 329.1527085 121.05078125 334.44921875 C114.80572679 341.71031003 108.6036885 349.00553429 102.5625 356.4375 C98.15086945 361.85570579 93.60676358 367.1527085 89.05078125 372.44921875 C82.80572679 379.71031003 76.6036885 387.00553429 70.5625 394.4375 C66.15086945 399.85570579 61.60676358 405.1527085 57.05078125 410.44921875 C50.80572679 417.71031003 44.6036885 425.00553429 38.5625 432.4375 C34.15086945 437.85570579 29.60676358 443.1527085 25.05078125 448.44921875 C22.1250078 451.85099983 19.21322923 455.26434274 16.3125 458.6875 C15.63997192 459.48051514 15.63997192 459.48051514 14.95385742 460.28955078 C11.15429266 464.78518193 7.45206828 469.35473554 3.77734375 473.953125 C2 476 2 476 0 477 C1.57017888 471.45976655 4.19592834 466.79586343 7 461.8125 C12.54606353 451.81298895 17.7995865 441.68210915 23 431.5 C28.32240435 421.08671368 33.71507926 410.73464507 39.3828125 400.50390625 C44.10250566 391.92850748 48.5446428 383.214532 53 374.5 C58.32356717 364.08727787 63.71505227 353.73469378 69.3828125 343.50390625 C74.10250566 334.92850748 78.5446428 326.214532 83 317.5 C88.32356717 307.08727787 93.71505227 296.73469378 99.3828125 286.50390625 C104.10250566 277.92850748 108.5446428 269.214532 113 260.5 C118.31937301 250.09548151 123.70567451 239.75045375 129.36962891 229.52807617 C135.0349537 219.23519248 140.34264564 208.75465743 145.68359375 198.29101562 C146.05325256 197.56800262 146.42291138 196.84498962 146.80377197 196.10006714 C147.52592519 194.68630172 148.24614303 193.27154582 148.96429443 191.85574341 C151.51402504 186.85539759 154.2607413 181.99824337 157.18603516 177.20581055 C158.25774103 175.01381205 158.25774103 175.01381205 157.26586914 172.83618164 C155.66927402 170.52027192 153.84500317 168.69504607 151.8125 166.75 C149.03582383 164.03483248 146.33776739 161.32543996 143.8125 158.375 C140.36092898 154.35218995 136.75020502 150.49054746 133.125 146.625 C129.21117654 142.45005058 125.31189041 138.26874618 121.5 134 C117.72655988 129.77599986 113.87169615 125.63362908 110 121.5 C105.41143663 116.60100528 100.87824656 111.6622163 96.40625 106.65625 C93.30779767 103.23588054 90.15482804 99.86831892 87 96.5 C82.36553314 91.55124877 77.78131581 86.56598164 73.26171875 81.51171875 C69.07140728 76.8582295 64.80653832 72.27312358 60.55273438 67.67773438 C51.88951386 58.31709736 43.25800081 48.92780911 34.64550781 39.52050781 C29.94395986 34.38569986 25.23914689 29.25407529 20.51489258 24.14013672 C19.51025748 23.05244316 18.5061822 21.96423225 17.50268555 20.87548828 C14.96726206 18.12515629 12.42429829 15.38253409 9.8671875 12.65234375 C8.86976503 11.58075396 7.8723682 10.5091403 6.875 9.4375 C5.98554688 8.48746094 5.09609375 7.53742187 4.1796875 6.55859375 C2.30632126 4.35957065 1.20837193 2.57419425 0 0 Z " fill="#FFA000" transform="translate(257,17)"/>
<path d="M0 0 C-1.41738489 3.25207092 -3.12526412 5.31361067 -5.6875 7.75 C-8.27921381 10.27703646 -10.77086051 12.81300884 -13.125 15.5625 C-16.56295676 19.55775112 -20.14681753 23.40448556 -23.75 27.25 C-29.87890202 33.79278717 -35.95305169 40.38140518 -42 47 C-43.83253019 49.00073662 -45.66625561 51.00037626 -47.5 53 C-50.23907634 55.98755385 -52.97777217 58.975453 -55.71484375 61.96484375 C-60.96938349 67.70255956 -66.23746288 73.42745017 -71.51708984 79.14208984 C-76.69366324 84.74711548 -81.84792498 90.37246312 -87 96 C-93.15924005 102.72764865 -99.32924584 109.44495753 -105.51928711 116.14428711 C-108.85452802 119.75526569 -112.18058485 123.37447164 -115.5 127 C-119.32335268 131.17593852 -123.15765805 135.34152772 -127 139.5 C-133.69835507 146.7501745 -140.36857937 154.02595183 -147.02734375 161.3125 C-147.52484131 161.85640381 -148.02233887 162.40030762 -148.53491211 162.96069336 C-149.91962521 164.47462482 -151.30358586 165.98924441 -152.6875 167.50390625 C-154.42448634 169.37879522 -156.17248042 171.21456146 -158 173 C-156.756333 176.96986057 -155.30885961 180.59593071 -153.3828125 184.28125 C-152.86501221 185.27560059 -152.34721191 186.26995117 -151.8137207 187.29443359 C-150.97780396 188.88118896 -150.97780396 188.88118896 -150.125 190.5 C-149.54129639 191.61584473 -148.95759277 192.73168945 -148.35620117 193.88134766 C-144.28629585 201.63370552 -140.10149492 209.31752159 -135.87353516 216.984375 C-130.6637755 226.49770269 -125.75192315 236.16155327 -120.81484985 245.8180542 C-116.31857718 254.60794015 -111.78503913 263.36259886 -107 272 C-101.37344697 282.15640504 -96.09818544 292.48408419 -90.81347656 302.82080078 C-86.31766054 311.60976784 -81.78454171 320.36349674 -77 329 C-71.37344697 339.15640504 -66.09818544 349.48408419 -60.81347656 359.82080078 C-56.31766054 368.60976784 -51.78454171 377.36349674 -47 386 C-41.79439511 395.39655798 -36.88950413 404.93664032 -32 414.5 C-26.96205606 424.35272661 -21.89958608 434.17963535 -16.5625 443.875 C-16.09755127 444.72030273 -15.63260254 445.56560547 -15.15356445 446.43652344 C-14.69812256 447.26442383 -14.24268066 448.09232422 -13.7734375 448.9453125 C-10.704595 454.52562696 -7.67869192 460.12768921 -4.6875 465.75 C-3.95672241 467.10134033 -3.95672241 467.10134033 -3.21118164 468.47998047 C-2.77410889 469.30643066 -2.33703613 470.13288086 -1.88671875 470.984375 C-1.49701904 471.71366211 -1.10731934 472.44294922 -0.70581055 473.19433594 C-0.47289307 473.79020508 -0.23997559 474.38607422 0 475 C-0.33 475.66 -0.66 476.32 -1 477 C-6.37697018 471.13999231 -11.54779819 465.16607135 -16.55078125 458.984375 C-19.318107 455.61238637 -22.1514694 452.30334554 -25 449 C-29.2998985 444.01074306 -33.50485878 438.95778266 -37.65625 433.84375 C-40.39302049 430.52313514 -43.1910295 427.25953218 -46 424 C-49.55453161 419.87531796 -53.06792143 415.72792288 -56.5 411.5 C-60.88712902 406.09923828 -65.41223412 400.825323 -69.94921875 395.55078125 C-76.19427321 388.28968997 -82.3963115 380.99446571 -88.4375 373.5625 C-92.84913055 368.14429421 -97.39323642 362.8472915 -101.94921875 357.55078125 C-108.19427321 350.28968997 -114.3963115 342.99446571 -120.4375 335.5625 C-124.84913055 330.14429421 -129.39323642 324.8472915 -133.94921875 319.55078125 C-140.19427321 312.28968997 -146.3963115 304.99446571 -152.4375 297.5625 C-156.84913055 292.14429421 -161.39323642 286.8472915 -165.94921875 281.55078125 C-172.19427321 274.28968997 -178.3963115 266.99446571 -184.4375 259.5625 C-188.84913055 254.14429421 -193.39323642 248.8472915 -197.94921875 243.55078125 C-204.19427321 236.28968997 -210.3963115 228.99446571 -216.4375 221.5625 C-220.84913055 216.14429421 -225.39323642 210.8472915 -229.94921875 205.55078125 C-237.15382205 197.17402769 -244.26985745 188.73180355 -251.22265625 180.14453125 C-252.97255709 177.96529769 -252.97255709 177.96529769 -255 176 C-254.90889415 170.73679047 -251.40121953 166.60396213 -248.578125 162.3984375 C-247.73365814 161.12046799 -247.73365814 161.12046799 -246.87213135 159.81668091 C-245.00597378 156.997467 -243.12816593 154.18622534 -241.25 151.375 C-239.93240894 149.39032822 -238.61535996 147.40529645 -237.29882812 145.41992188 C-227.25779486 130.29918924 -217.1043485 115.25398102 -206.92797852 100.22412109 C-196.66068088 85.0475757 -186.56991742 69.75752365 -176.5390625 54.42382812 C-175.6690435 53.09708069 -175.6690435 53.09708069 -174.78144836 51.74353027 C-173.71445156 50.11625742 -172.64958822 48.48758221 -171.58757019 46.85705566 C-170.62956222 45.39709453 -169.65662401 43.94678 -168.66640186 42.5084734 C-166.95830005 40.00466987 -166.95830005 40.00466987 -165.47241211 37.28148937 C-161.86639861 31.39817921 -158.98359918 28.38408213 -152.22517395 26.57624817 C-149.50632332 25.99961326 -146.77649183 25.54000473 -144.03442383 25.08911133 C-142.52339253 24.80570498 -141.01311448 24.51825753 -139.5035553 24.22711182 C-135.42794273 23.45291706 -131.34417702 22.73559301 -127.2564261 22.028723 C-122.97130713 21.27790667 -118.69588979 20.47535103 -114.41911316 19.67863464 C-107.24302314 18.3490969 -100.06164143 17.05262854 -92.87524414 15.7800293 C-82.74321793 13.98578768 -72.62225595 12.13449622 -62.50286829 10.27046931 C-48.94299911 7.77543317 -35.37960257 5.29820217 -21.80501366 2.88441467 C-20.33780595 2.62302164 -18.87085171 2.36020129 -17.4041748 2.09584618 C-15.40149566 1.73532701 -13.39770928 1.38097479 -11.39387512 1.02693176 C-10.27322568 0.82736279 -9.15257624 0.62779383 -7.99796772 0.42217731 C-5.2791022 0.0393035 -2.7398634 -0.0837244 0 0 Z " fill="#FFA000" transform="translate(255,17)"/>
<path d="M0 0 C2 0 2 0 3.234375 1.22265625 C3.73453125 1.82980469 4.2346875 2.43695312 4.75 3.0625 C8.33690039 7.28723833 12.08151237 11.33698267 15.875 15.375 C19.78920759 19.54957503 23.6881218 23.73126749 27.5 28 C31.2734412 32.22400134 35.12833772 36.36633784 39 40.5 C43.63446686 45.44875123 48.21868419 50.43401836 52.73828125 55.48828125 C56.92859272 60.1417705 61.19346168 64.72687642 65.44726562 69.32226562 C74.11048614 78.68290264 82.74199919 88.07219089 91.35449219 97.47949219 C97.06260755 103.71362539 102.7830084 109.9360536 108.51928711 116.14428711 C112.30851177 120.24678208 116.0842269 124.36144667 119.85546875 128.48046875 C123.22787299 132.16209057 126.61174008 135.83296954 130 139.5 C134.76397232 144.65643472 139.51480721 149.82460063 144.25390625 155.00390625 C146.1728259 157.10023415 148.09822749 159.1903963 150.02734375 161.27734375 C150.52484131 161.81673584 151.02233887 162.35612793 151.53491211 162.91186523 C152.91795185 164.41106095 154.30267326 165.9087048 155.6875 167.40625 C158 170 158 170 161 174 C55.4 174 -50.2 174 -159 174 C-152.25860905 166.13504389 -152.25860905 166.13504389 -149.44921875 163.16796875 C-148.83796143 162.51997314 -148.2267041 161.87197754 -147.59692383 161.2043457 C-146.96681396 160.53878662 -146.3367041 159.87322754 -145.6875 159.1875 C-140.80377422 154.00466159 -135.97005222 148.78856035 -131.2265625 143.4765625 C-127.05095874 138.83211902 -122.79527997 134.26096117 -118.55273438 129.67773438 C-116.0123352 126.93282508 -113.47467663 124.18538781 -110.9375 121.4375 C-110.19149536 120.62962036 -110.19149536 120.62962036 -109.43041992 119.80541992 C-105.65877539 115.71880524 -101.89962865 111.6208802 -98.14428711 107.51928711 C-94.7719881 103.83772478 -91.38818187 100.16694599 -88 96.5 C-82.31670731 90.34851007 -76.65530879 84.17721184 -71 78 C-64.84145811 71.27311394 -58.67188146 64.55681923 -52.48291016 57.85791016 C-47.30633676 52.25288452 -42.15207502 46.62753688 -37 41 C-31.34468956 34.82278636 -25.68295514 28.65180351 -20 22.5 C-18.50267224 20.87785429 -17.00546607 19.25559644 -15.50830078 17.63330078 C-14.48903549 16.52956417 -13.46916271 15.42638829 -12.44873047 14.32373047 C-10.9432624 12.69657 -9.4401714 11.06724294 -7.9375 9.4375 C-7.05964844 8.48746094 -6.18179688 7.53742187 -5.27734375 6.55859375 C-3.01400738 4.10452634 -3.01400738 4.10452634 -1.31640625 1.66015625 C-0.88199219 1.11230469 -0.44757813 0.56445312 0 0 Z " fill="#FFEBB2" transform="translate(255,17)"/>
<path d="M0 0 C-1.41738489 3.25207092 -3.12526412 5.31361067 -5.6875 7.75 C-8.27921381 10.27703646 -10.77086051 12.81300884 -13.125 15.5625 C-16.56295676 19.55775112 -20.14681753 23.40448556 -23.75 27.25 C-29.87890202 33.79278717 -35.95305169 40.38140518 -42 47 C-43.83253019 49.00073662 -45.66625561 51.00037626 -47.5 53 C-50.23907634 55.98755385 -52.97777217 58.975453 -55.71484375 61.96484375 C-60.96938349 67.70255956 -66.23746288 73.42745017 -71.51708984 79.14208984 C-76.69366324 84.74711548 -81.84792498 90.37246312 -87 96 C-93.15924005 102.72764865 -99.32924584 109.44495753 -105.51928711 116.14428711 C-108.85452802 119.75526569 -112.18058485 123.37447164 -115.5 127 C-119.32335268 131.17593852 -123.15765805 135.34152772 -127 139.5 C-130.86210166 143.68026675 -134.71730315 147.8666773 -138.5625 152.0625 C-139.45195312 153.031875 -140.34140625 154.00125 -141.2578125 155 C-143.17806231 157.09633048 -145.08754478 159.20198328 -146.9921875 161.3125 C-147.48517334 161.85640381 -147.97815918 162.40030762 -148.48608398 162.96069336 C-149.85636675 164.47296001 -151.22321478 165.98833687 -152.58984375 167.50390625 C-155 170 -155 170 -159 173 C-159 125.48 -159 77.96 -159 29 C-120.58225216 21.72754138 -120.58225216 21.72754138 -104.50195312 18.69140625 C-93.39182786 16.59364944 -82.28188843 14.49494024 -71.1730957 12.39013672 C-63.08321123 10.8573358 -54.992731 9.32772648 -46.90151757 7.8019557 C-42.61683832 6.99387246 -38.33247561 6.1841881 -34.0488224 5.37068176 C-30.01707071 4.60506611 -25.98453624 3.8437199 -21.9513607 3.08564186 C-20.47121867 2.80665475 -18.99136954 2.52610848 -17.51184082 2.24388695 C-15.49123061 1.85869538 -13.46963977 1.47913637 -11.44770813 1.10095215 C-10.31666814 0.88709618 -9.18562815 0.6732402 -8.02031422 0.45290375 C-5.28647363 0.04295744 -2.75764466 -0.09048666 0 0 Z " fill="#FFD54F" transform="translate(255,17)"/>
<path d="M0 0 C7.8053509 0.61343955 15.40419153 1.89544318 23.09033203 3.36083984 C24.99980873 3.71958946 24.99980873 3.71958946 26.94786072 4.08558655 C30.41383348 4.73686637 33.87880072 5.39335552 37.34360361 6.05082655 C40.99369522 6.74250772 44.64470938 7.42928524 48.29562378 8.11660767 C55.21486415 9.41998299 62.13328145 10.7276737 69.05140579 12.03695834 C76.86644583 13.51578136 84.68236783 14.98991536 92.4983809 16.46358562 C102.05451115 18.26538476 111.61051067 20.06787162 121.165802 21.87411499 C121.84474353 22.00245169 122.52368505 22.13078839 123.22320056 22.26301408 C126.37550685 22.85891818 129.52778011 23.45499626 132.68000793 24.05131531 C141.45167492 25.70994254 150.22576475 27.35483089 159 29 C159 76.52 159 124.04 159 173 C151.12224843 166.24764151 151.12224843 166.24764151 148.3515625 163.265625 C147.4395105 162.28879761 147.4395105 162.28879761 146.5090332 161.29223633 C145.88730225 160.61829834 145.26557129 159.94436035 144.625 159.25 C143.96653076 158.54190186 143.30806152 157.83380371 142.62963867 157.10424805 C138.45116927 152.60099785 134.31835566 148.05875784 130.2265625 143.4765625 C126.05095874 138.83211902 121.79527997 134.26096117 117.55273438 129.67773438 C115.0123352 126.93282508 112.47467663 124.18538781 109.9375 121.4375 C109.44016357 120.89891357 108.94282715 120.36032715 108.43041992 119.80541992 C104.65877539 115.71880524 100.89962865 111.6208802 97.14428711 107.51928711 C93.7719881 103.83772478 90.38818187 100.16694599 87 96.5 C80.86297383 89.85739742 74.75231372 83.19088341 68.64550781 76.52050781 C63.44135308 70.83677654 58.22952368 65.16040815 53 59.5 C46.86301427 52.85735983 40.75231393 46.19088363 34.64550781 39.52050781 C29.94395986 34.38569986 25.23914689 29.25407529 20.51489258 24.14013672 C19.51025748 23.05244316 18.5061822 21.96423225 17.50268555 20.87548828 C14.96726206 18.12515629 12.42429829 15.38253409 9.8671875 12.65234375 C8.86976503 11.58075396 7.8723682 10.5091403 6.875 9.4375 C5.98554688 8.48746094 5.09609375 7.53742187 4.1796875 6.55859375 C2.30632126 4.35957065 1.20837193 2.57419425 0 0 Z " fill="#FFD54F" transform="translate(257,17)"/>
<path d="M0 0 C2.75142358 2.75142358 4.6239063 4.69068009 6.65600586 7.81079102 C7.1438707 8.55434341 7.63173553 9.29789581 8.13438416 10.0639801 C8.65593582 10.86915573 9.17748749 11.67433136 9.71484375 12.50390625 C10.27357681 13.35730087 10.83230988 14.2106955 11.40797424 15.08995056 C12.61897859 16.94004389 13.82796296 18.79146066 15.03515625 20.64404297 C18.30260452 25.65675814 21.58660047 30.65859877 24.87109375 35.66015625 C25.54768036 36.69085236 26.22426697 37.72154846 26.9213562 38.78347778 C33.69239159 49.08245223 40.58631556 59.29647713 47.5 69.5 C59.04858502 86.55115194 70.43011513 103.70727428 81.72460938 120.92773438 C82.31004517 121.8194635 82.89548096 122.71119263 83.49865723 123.62994385 C84.5845558 125.28445768 85.66921347 126.93978698 86.75231934 128.59613037 C89.05094123 132.09892337 91.38272667 135.54786591 93.86328125 138.92480469 C96 142 96 142 96 144 C64.32 144 32.64 144 0 144 C0 96.48 0 48.96 0 0 Z " fill="#FFC107" transform="translate(416,47)"/>
<path d="M0 0 C0.33 0 0.66 0 1 0 C1 47.52 1 95.04 1 144 C-30.68 144 -62.36 144 -95 144 C-93.59830279 140.49575698 -92.60418992 138.16182394 -90.57104492 135.18334961 C-90.08302902 134.4630809 -89.59501312 133.74281219 -89.09220886 133.00071716 C-88.29439751 131.83827232 -88.29439751 131.83827232 -87.48046875 130.65234375 C-86.63812431 129.41176964 -86.63812431 129.41176964 -85.77876282 128.14613342 C-84.55966172 126.35108626 -83.33856883 124.55739057 -82.11572266 122.76489258 C-78.79906259 117.90160564 -75.49886725 113.02718271 -72.19921875 108.15234375 C-71.17506363 106.63983536 -71.17506363 106.63983536 -70.13021851 105.09677124 C-63.16267867 94.79064639 -56.3244628 84.40117716 -49.5 74 C-36.61569024 54.37410038 -23.53230115 34.88674591 -10.36097717 15.45246887 C-9.8732634 14.73250229 -9.38554962 14.01253571 -8.88305664 13.27075195 C-8.41312286 12.57801178 -7.94318909 11.88527161 -7.45901489 11.17153931 C-6.40763055 9.60670098 -5.36753923 8.034254 -4.33468628 6.4571228 C-3.79296783 5.63104523 -3.25124939 4.80496765 -2.69311523 3.95385742 C-2.20117172 3.19739426 -1.70922821 2.44093109 -1.20237732 1.6615448 C-0.8055928 1.11323502 -0.40880829 0.56492523 0 0 Z " fill="#FFC107" transform="translate(95,47)"/>
</svg>
