<?xml version="1.0" encoding="UTF-8"?>
<svg version="1.1" xmlns="http://www.w3.org/2000/svg" width="512" height="512">
<path d="M0 0 C52.80261358 -1.00936896 103.60746059 18.81707038 143.64453125 52.6875 C144.55924194 53.45670776 144.55924194 53.45670776 145.49243164 54.24145508 C146.9384281 55.48985935 148.32888997 56.80206931 149.70703125 58.125 C149.70703125 58.785 149.70703125 59.445 149.70703125 60.125 C148.95679688 60.15078125 148.2065625 60.1765625 147.43359375 60.203125 C135.677034 60.85462201 125.09297641 64.54974816 116.73046875 73.16015625 C110.26210525 80.96347988 106.12026816 90.64449526 106.38671875 100.921875 C107.61972179 109.40253007 114.05319026 116.55392486 118.90795898 123.32202148 C135.79212251 146.96706478 145.92745635 169.5120881 145.95703125 199 C145.95803833 199.69407959 145.95904541 200.38815918 145.96008301 201.10327148 C145.93926552 222.30527042 140.76714862 241.5591971 134.01953125 261.5625 C133.79547607 262.23134216 133.5714209 262.90018433 133.34057617 263.58929443 C128.61221828 277.69463535 123.66616093 291.72448114 118.70703125 305.75 C118.33236725 306.8110495 117.95770325 307.872099 117.57168579 308.96530151 C116.49473965 312.01177361 115.41412957 315.05691711 114.33203125 318.1015625 C114.01054611 319.01068893 113.68906097 319.91981537 113.35783386 320.85649109 C111.63238231 325.69408513 109.78810856 330.42901074 107.70703125 335.125 C104.88054011 333.71175443 104.82863051 332.1794277 103.80615234 329.21777344 C103.43687622 328.16006744 103.0676001 327.10236145 102.68713379 326.01260376 C102.28893433 324.84828827 101.89073486 323.68397278 101.48046875 322.484375 C100.83716951 320.63313739 100.19386802 318.78190056 99.55047226 316.93069649 C98.86340503 314.94938257 98.17993926 312.96685934 97.49749756 310.98394775 C96.07362633 306.84722568 94.639761 302.71401673 93.20361328 298.58154297 C92.72005781 297.18991243 92.23650679 295.79828035 91.75296021 294.40664673 C91.51349796 293.71753834 91.27403572 293.02842995 91.02731705 292.31843948 C90.29849364 290.21997589 89.57061815 288.12118564 88.84298706 286.02230835 C84.81598224 274.41000269 80.71652923 262.82443158 76.58203125 251.25 C70.72315284 234.82867881 64.922547 218.38743984 59.14453125 201.9375 C52.36746029 182.64552008 45.54006718 163.37237361 38.64665222 144.12165833 C38.09819734 142.59001296 37.55001944 141.05826837 37.00215149 139.52641296 C35.73850924 135.99503104 34.46903804 132.46598182 33.18652344 128.94140625 C32.95049408 128.28958374 32.71446472 127.63776123 32.47128296 126.96618652 C31.83899628 125.2208056 31.20355699 123.47656764 30.56787109 121.73242188 C29.70703125 119.125 29.70703125 119.125 29.70703125 117.125 C39.93703125 117.125 50.16703125 117.125 60.70703125 117.125 C60.70703125 110.525 60.70703125 103.925 60.70703125 97.125 C17.47703125 97.125 -25.75296875 97.125 -70.29296875 97.125 C-70.29296875 103.725 -70.29296875 110.325 -70.29296875 117.125 C-60.39296875 117.125 -50.49296875 117.125 -40.29296875 117.125 C-34.55768211 133.1381233 -34.55768211 133.1381233 -31.92578125 140.53027344 C-31.22787437 142.49023786 -30.52995745 144.45019871 -29.83203125 146.41015625 C-29.47224182 147.4207309 -29.11245239 148.43130554 -28.74176025 149.47250366 C-26.35545504 156.16723124 -23.94747344 162.85381938 -21.5274353 169.53642273 C-19.84959458 174.17678955 -18.18320719 178.82122265 -16.51873779 183.46640015 C-15.7027604 185.73545763 -14.8818482 188.00274666 -14.05596924 190.26821899 C-12.89293165 193.46080735 -11.74738492 196.65918211 -10.60546875 199.859375 C-10.07848892 201.28648048 -10.07848892 201.28648048 -9.54086304 202.74241638 C-9.07204208 204.07213219 -9.07204208 204.07213219 -8.59375 205.42871094 C-8.31700439 206.19471619 -8.04025879 206.96072144 -7.75512695 207.74993896 C-6.83222128 212.49281118 -8.42721802 216.90205326 -9.97265625 221.36865234 C-10.31872925 222.37617554 -10.66480225 223.38369873 -11.0213623 224.42175293 C-11.39974243 225.50718384 -11.77812256 226.59261475 -12.16796875 227.7109375 C-12.56471802 228.8606604 -12.96146729 230.0103833 -13.37023926 231.19494629 C-14.44904082 234.31706717 -15.53222957 237.43759426 -16.6177063 240.55739594 C-17.52087916 243.15565572 -18.42040665 245.75517155 -19.32003021 248.35466194 C-26.09128801 267.9165258 -32.96035826 287.44369806 -39.91015625 306.94287109 C-43.128165 315.97529858 -46.33089651 325.0045619 -49.29296875 334.125 C-50.28296875 334.125 -51.27296875 334.125 -52.29296875 334.125 C-52.48881058 333.5661763 -52.6846524 333.0073526 -52.88642883 332.43159485 C-62.0614267 306.25652996 -71.27608273 280.09812283 -80.66796875 254 C-88.41639658 232.46359282 -96.0120006 210.87594118 -103.55102539 189.265625 C-107.80431017 177.07674107 -112.07299341 164.89396201 -116.3984375 152.73046875 C-116.80074585 151.59858627 -117.2030542 150.4667038 -117.61755371 149.30052185 C-119.51285353 143.9704648 -121.41213515 138.64186918 -123.31689453 133.31518555 C-123.98218439 131.44713422 -124.6473914 129.57905337 -125.3125 127.7109375 C-125.61762009 126.8619841 -125.92274017 126.0130307 -126.23710632 125.13835144 C-128.29296875 119.35164068 -128.29296875 119.35164068 -128.29296875 117.125 C-119.05296875 117.125 -109.81296875 117.125 -100.29296875 117.125 C-100.29296875 110.525 -100.29296875 103.925 -100.29296875 97.125 C-125.37296875 97.125 -150.45296875 97.125 -176.29296875 97.125 C-173.55775319 91.65456889 -169.96817598 86.99962041 -166.29296875 82.125 C-165.35517578 80.87203125 -165.35517578 80.87203125 -164.3984375 79.59375 C-153.30031083 65.40916207 -139.96704315 52.5596371 -125.29296875 42.125 C-124.6395752 41.65433105 -123.98618164 41.18366211 -123.31298828 40.69873047 C-86.55855116 14.46036204 -44.86704564 1.70313815 0 0 Z " fill="#00769D" transform="translate(253.29296875,40.875)"/>
<path d="M0 0 C1.45108658 0.00273422 1.45108658 0.00273422 2.93148804 0.00552368 C17.26440977 0.05095174 31.21023917 0.55983928 45.3125 3.3125 C46.65803955 3.55395752 46.65803955 3.55395752 48.03076172 3.80029297 C96.71843124 12.61028149 141.74255908 36.05356547 177.3125 70.3125 C178.3015332 71.26068604 178.3015332 71.26068604 179.31054688 72.22802734 C188.79880305 81.37247479 197.5387044 90.66984009 205.3125 101.3125 C206.17056152 102.46355017 207.02863451 103.61459177 207.88671875 104.765625 C213.92427396 112.95525981 219.30707302 121.45788276 224.3125 130.3125 C224.7146875 131.01971191 225.116875 131.72692383 225.53125 132.45556641 C238.54775099 155.57510937 247.281052 180.72419753 252.625 206.6875 C252.77235596 207.39801514 252.91971191 208.10853027 253.0715332 208.84057617 C256.05794017 224.48291051 256.68730954 240.11926093 256.625 256 C256.62226578 257.45108658 256.62226578 257.45108658 256.61947632 258.93148804 C256.57404826 273.26440977 256.06516072 287.21023917 253.3125 301.3125 C253.15152832 302.20952637 252.99055664 303.10655273 252.82470703 304.03076172 C244.01471851 352.71843124 220.57143453 397.74255908 186.3125 433.3125 C185.68037598 433.97185547 185.04825195 434.63121094 184.39697266 435.31054688 C175.25252521 444.79880305 165.95515991 453.5387044 155.3125 461.3125 C154.16144983 462.17056152 153.01040823 463.02863451 151.859375 463.88671875 C143.66974019 469.92427396 135.16711724 475.30707302 126.3125 480.3125 C125.60528809 480.7146875 124.89807617 481.116875 124.16943359 481.53125 C101.04989063 494.54775099 75.90080247 503.281052 49.9375 508.625 C49.22698486 508.77235596 48.51646973 508.91971191 47.78442383 509.0715332 C32.14208949 512.05794017 16.50573907 512.68730954 0.625 512.625 C-0.34239105 512.62317719 -1.3097821 512.62135437 -2.30648804 512.61947632 C-16.63940977 512.57404826 -30.58523917 512.06516072 -44.6875 509.3125 C-45.58452637 509.15152832 -46.48155273 508.99055664 -47.40576172 508.82470703 C-96.09343124 500.01471851 -141.11755908 476.57143453 -176.6875 442.3125 C-177.34685547 441.68037598 -178.00621094 441.04825195 -178.68554688 440.39697266 C-188.17380305 431.25252521 -196.9137044 421.95515991 -204.6875 411.3125 C-205.54556152 410.16144983 -206.40363451 409.01040823 -207.26171875 407.859375 C-213.29927396 399.66974019 -218.68207302 391.16711724 -223.6875 382.3125 C-224.0896875 381.60528809 -224.491875 380.89807617 -224.90625 380.16943359 C-237.92275099 357.04989063 -246.656052 331.90080247 -252 305.9375 C-252.22103394 304.87172729 -252.22103394 304.87172729 -252.4465332 303.78442383 C-255.43294017 288.14208949 -256.06230954 272.50573907 -256 256.625 C-255.99817719 255.65760895 -255.99635437 254.6902179 -255.99447632 253.69351196 C-255.94904826 239.36059023 -255.44016072 225.41476083 -252.6875 211.3125 C-252.44604248 209.96696045 -252.44604248 209.96696045 -252.19970703 208.59423828 C-243.38971851 159.90656876 -219.94643453 114.88244092 -185.6875 79.3125 C-185.05537598 78.65314453 -184.42325195 77.99378906 -183.77197266 77.31445312 C-174.62752521 67.82619695 -165.33015991 59.0862956 -154.6875 51.3125 C-153.53644983 50.45443848 -152.38540823 49.59636549 -151.234375 48.73828125 C-143.04474019 42.70072604 -134.54211724 37.31792698 -125.6875 32.3125 C-124.98028809 31.9103125 -124.27307617 31.508125 -123.54443359 31.09375 C-100.42489063 18.07724901 -75.27580247 9.343948 -49.3125 4 C-48.24672729 3.77896606 -48.24672729 3.77896606 -47.15942383 3.5534668 C-31.51708949 0.56705983 -15.88073907 -0.06230954 0 0 Z M-87.6875 35.3125 C-88.35974609 35.5707959 -89.03199219 35.8290918 -89.72460938 36.09521484 C-114.44717964 45.74743197 -136.89389794 60.79159457 -156.6875 78.3125 C-157.58082031 79.09496094 -158.47414063 79.87742188 -159.39453125 80.68359375 C-168.68874459 88.92132201 -176.99666642 97.55605403 -184.6875 107.3125 C-185.8940625 108.81103516 -185.8940625 108.81103516 -187.125 110.33984375 C-193.19399418 117.96001475 -198.49138006 125.93854977 -203.48486328 134.29931641 C-204.26326101 135.60233461 -205.04771487 136.90176205 -205.83935547 138.19677734 C-227.35226114 173.48540916 -237.18284351 214.88619954 -237 255.9375 C-236.99784485 256.81334747 -236.9956897 257.68919495 -236.99346924 258.59158325 C-236.87639708 288.32892588 -231.51531059 316.55515382 -220.6875 344.3125 C-220.4292041 344.98474609 -220.1709082 345.65699219 -219.90478516 346.34960938 C-210.25256803 371.07217964 -195.20840543 393.51889794 -177.6875 413.3125 C-176.90503906 414.20582031 -176.12257812 415.09914063 -175.31640625 416.01953125 C-167.07867799 425.31374459 -158.44394597 433.62166642 -148.6875 441.3125 C-147.68847656 442.116875 -146.68945312 442.92125 -145.66015625 443.75 C-138.03998525 449.81899418 -130.06145023 455.11638006 -121.70068359 460.10986328 C-120.39766539 460.88826101 -119.09823795 461.67271487 -117.80322266 462.46435547 C-82.51459084 483.97726114 -41.11380046 493.80784351 -0.0625 493.625 C0.81334747 493.62284485 1.68919495 493.6206897 2.59158325 493.61846924 C32.32892588 493.50139708 60.55515382 488.14031059 88.3125 477.3125 C89.32086914 476.92505615 89.32086914 476.92505615 90.34960938 476.52978516 C115.07217964 466.87756803 137.51889794 451.83340543 157.3125 434.3125 C158.65248047 433.13880859 158.65248047 433.13880859 160.01953125 431.94140625 C169.31374459 423.70367799 177.62166642 415.06894597 185.3125 405.3125 C186.116875 404.31347656 186.92125 403.31445312 187.75 402.28515625 C193.81899418 394.66498525 199.11638006 386.68645023 204.10986328 378.32568359 C204.88826101 377.02266539 205.67271487 375.72323795 206.46435547 374.42822266 C227.97726114 339.13959084 237.80784351 297.73880046 237.625 256.6875 C237.62284485 255.81165253 237.6206897 254.93580505 237.61846924 254.03341675 C237.50139708 224.29607412 232.14031059 196.06984618 221.3125 168.3125 C220.92505615 167.30413086 220.92505615 167.30413086 220.52978516 166.27539062 C210.87756803 141.55282036 195.83340543 119.10610206 178.3125 99.3125 C177.13880859 97.97251953 177.13880859 97.97251953 175.94140625 96.60546875 C167.70367799 87.31125541 159.06894597 79.00333358 149.3125 71.3125 C148.31347656 70.508125 147.31445312 69.70375 146.28515625 68.875 C138.66498525 62.80600582 130.68645023 57.50861994 122.32568359 52.51513672 C121.02266539 51.73673899 119.72323795 50.95228513 118.42822266 50.16064453 C83.13959084 28.64773886 41.73880046 18.81715649 0.6875 19 C-0.18834747 19.00215515 -1.06419495 19.0043103 -1.96658325 19.00653076 C-31.70392588 19.12360292 -59.93015382 24.48468941 -87.6875 35.3125 Z " fill="#00769D" transform="translate(255.6875,-0.3125)"/>
<path d="M0 0 C3.36138232 3.75394331 4.61717869 8.07851006 6.1953125 12.765625 C6.49967728 13.64964996 6.80404205 14.53367493 7.11763 15.44448853 C7.77844955 17.36604296 8.43604119 19.2887098 9.09078979 21.21234131 C10.87268384 26.44607996 12.67887297 31.6714556 14.48046875 36.8984375 C14.85375809 37.98379791 15.22704742 39.06915833 15.61164856 40.18740845 C19.48538533 51.44087838 23.4540599 62.65998621 27.4375 73.875 C28.14426579 75.86675929 28.85097128 77.85853998 29.55761719 79.8503418 C30.9820618 83.86476914 32.40713137 87.878974 33.83251953 91.89306641 C37.15633032 101.25538116 40.47052256 110.62110315 43.78594971 119.98638916 C50.51530559 138.99400038 57.25292556 157.99867125 64 177 C61.59992564 179.40007436 60.1375169 179.64394969 56.86328125 180.4375 C55.81930176 180.69184814 54.77532227 180.94619629 53.69970703 181.20825195 C52.58192871 181.46952881 51.46415039 181.73080566 50.3125 182 C49.1663623 182.2683667 48.02022461 182.5367334 46.83935547 182.81323242 C38.57466241 184.70963526 30.47431513 186.41027345 22 187 C20.59041016 187.09837158 20.59041016 187.09837158 19.15234375 187.19873047 C-8.95544298 188.99642174 -39.215319 187.73449313 -66 178 C-67 176 -67 176 -66.55371094 174.27177429 C-66.28333008 173.57195938 -66.01294922 172.87214447 -65.734375 172.15112305 C-65.42722565 171.3446936 -65.12007629 170.53826416 -64.80361938 169.70739746 C-64.45592499 168.81782349 -64.10823059 167.92824951 -63.75 167.01171875 C-63.38965668 166.07130737 -63.02931335 165.130896 -62.65805054 164.1619873 C-61.86576628 162.0968094 -61.06996629 160.0329778 -60.2711792 157.9703064 C-58.53382636 153.48361166 -56.81320814 148.99055729 -55.09140015 144.49787903 C-54.16960357 142.09323757 -53.24691277 139.68893875 -52.32339478 137.28495789 C-47.43975041 124.56680566 -42.63428625 111.8195097 -37.83596802 99.06896973 C-36.37360312 95.18319682 -34.90953016 91.29806898 -33.44506836 87.41308594 C-29.37194419 76.60721073 -25.30086256 65.80056935 -21.23394775 54.99235535 C-19.69998257 50.91686857 -18.16442406 46.8419834 -16.628479 42.76724243 C-15.93562261 40.92798938 -15.24348451 39.08846552 -14.55218506 37.24862671 C-9.86188966 24.76618996 -4.99437683 12.36393764 0 0 Z " fill="#00769D" transform="translate(256,283)"/>
<path d="M0 0 C22.42877965 20.28535962 27.39386394 69.02938567 28.89038086 97.19897461 C31.11699192 154.09409409 10.85535765 209.01301833 -27.375 251 C-29.23715292 253.01229001 -31.11553837 255.0086092 -33 257 C-33.87527344 257.92941406 -34.75054687 258.85882813 -35.65234375 259.81640625 C-49.78848007 274.40921658 -67.40707886 287.69361891 -86 296 C-84.09406892 288.62371351 -81.85924555 281.45798041 -79.25390625 274.30078125 C-78.70978088 272.78942093 -78.70978088 272.78942093 -78.15466309 271.24752808 C-77.37125807 269.0730685 -76.5859309 266.89930064 -75.79885864 264.72616577 C-74.53262329 261.23000848 -73.2713925 257.73208115 -72.01147461 254.23364258 C-70.68430196 250.54860928 -69.35682929 246.86368724 -68.02784729 243.17930603 C-63.75973504 231.34584211 -59.52560232 219.50036597 -55.2986145 207.65216064 C-54.05560041 204.1681614 -52.81195675 200.68438751 -51.56811523 197.20068359 C-49.04499667 190.13393663 -46.52245793 183.06698279 -44 176 C-40.96790035 167.5052662 -37.93554846 159.01062257 -34.90264893 150.51617432 C-34.05467462 148.14101178 -33.20681389 145.76580869 -32.35906982 143.39056396 C-27.89556988 130.88471393 -23.42358809 118.38210242 -18.91822815 105.89126587 C-16.63552469 99.56141161 -14.36328343 93.2279018 -12.10374451 86.88973999 C-11.0058083 83.81020238 -9.90293284 80.73292865 -8.78613281 77.66015625 C0.47868358 52.14666008 1.74019121 26.90603332 0 0 Z " fill="#00769D" transform="translate(442,150)"/>
<path d="M0 0 C0.66 0 1.32 0 2 0 C2.29376274 0.83823555 2.29376274 0.83823555 2.59346008 1.69340515 C11.74668867 27.80636516 20.93950097 53.90252357 30.3125 79.9375 C37.65158117 100.3265527 44.83575565 120.76655395 51.96149445 141.23082733 C58.09269178 158.83877216 64.25711002 176.43298122 70.55587769 193.98187256 C77.06744068 212.12445645 83.45514239 230.31019584 89.83276367 248.50024414 C90.22821381 249.62690491 90.62366394 250.75356567 91.03109741 251.91436768 C91.77482342 254.03337909 92.51765189 256.1527058 93.25942993 258.2723999 C93.75810074 259.69277557 93.75810074 259.69277557 94.2668457 261.1418457 C94.55469437 261.96336624 94.84254303 262.78488678 95.13911438 263.63130188 C95.99158476 266.06556085 95.99158476 266.06556085 97.17082214 268.61613464 C98 271 98 271 97 274 C70.50095827 259.721594 46.2390979 240.07427547 28 216 C27.60893066 215.4853418 27.21786133 214.97068359 26.81494141 214.44042969 C-8.34851711 167.78792037 -21.87684097 110.73369613 -15 53 C-12.40233395 34.98843303 -7.72643148 16.5126832 0 0 Z " fill="#00769D" transform="translate(58,172)"/>
</svg>
